<svg width="302" height="100" viewBox="0 0 302 100" fill="none" xmlns="http://www.w3.org/2000/svg">
<path d="M47.952 55H46.902V49.694L44.704 55H44.312L42.1 49.694V55H41.05V48.238H42.436L44.508 53.25L46.552 48.238H47.952V55ZM51.1521 54.916C51.0028 55.0653 50.8208 55.14 50.6061 55.14C50.3914 55.14 50.2094 55.0653 50.0601 54.916C49.9108 54.7667 49.8361 54.5847 49.8361 54.37C49.8361 54.1553 49.9108 53.9733 50.0601 53.824C50.2094 53.6747 50.3914 53.6 50.6061 53.6C50.8208 53.6 51.0028 53.6747 51.1521 53.824C51.3014 53.9733 51.3761 54.1553 51.3761 54.37C51.3761 54.5847 51.3014 54.7667 51.1521 54.916ZM64.008 55H62.566L59.024 50.8L58.086 51.864V55H56.924V45.662H58.086V50.492L62.216 45.662H63.672L59.78 50.1L64.008 55ZM68.6222 55.168C67.6702 55.168 66.9096 54.7713 66.3402 53.978V57.576H65.2902V48.238H66.3402V49.246C66.5922 48.8913 66.9189 48.6067 67.3202 48.392C67.7216 48.1773 68.1556 48.07 68.6222 48.07C69.5182 48.07 70.2416 48.392 70.7922 49.036C71.3522 49.6707 71.6322 50.5293 71.6322 51.612C71.6322 52.6947 71.3522 53.558 70.7922 54.202C70.2416 54.846 69.5182 55.168 68.6222 55.168ZM68.3562 54.23C69.0189 54.23 69.5462 53.9873 69.9382 53.502C70.3302 53.0073 70.5262 52.3773 70.5262 51.612C70.5262 50.8467 70.3302 50.2213 69.9382 49.736C69.5462 49.2507 69.0189 49.008 68.3562 49.008C67.9549 49.008 67.5629 49.1153 67.1802 49.33C66.8069 49.5353 66.5269 49.7873 66.3402 50.086V53.138C66.5269 53.446 66.8069 53.7073 67.1802 53.922C67.5629 54.1273 67.9549 54.23 68.3562 54.23ZM76.354 55.168C75.346 55.168 74.52 54.8413 73.876 54.188C73.232 53.5253 72.91 52.6667 72.91 51.612C72.91 50.6227 73.2273 49.7873 73.862 49.106C74.4966 48.4153 75.29 48.07 76.242 48.07C77.2406 48.07 78.0293 48.4153 78.608 49.106C79.196 49.7873 79.49 50.6507 79.49 51.696V51.962H74.016C74.0626 52.6247 74.3053 53.18 74.744 53.628C75.1826 54.076 75.752 54.3 76.452 54.3C77.292 54.3 77.9873 54.0153 78.538 53.446L79.042 54.132C78.3513 54.8227 77.4553 55.168 76.354 55.168ZM78.454 51.192C78.4446 50.6133 78.2486 50.0953 77.866 49.638C77.4833 49.1713 76.9373 48.938 76.228 48.938C75.556 48.938 75.024 49.1667 74.632 49.624C74.2493 50.0813 74.044 50.604 74.016 51.192H78.454ZM84.1726 55.168C83.174 55.168 82.362 54.832 81.7366 54.16C81.1113 53.4787 80.7986 52.6293 80.7986 51.612C80.7986 50.5947 81.1113 49.75 81.7366 49.078C82.362 48.406 83.174 48.07 84.1726 48.07C85.218 48.07 86.044 48.462 86.6506 49.246L85.9506 49.89C85.5213 49.302 84.9473 49.008 84.2286 49.008C83.5193 49.008 82.95 49.2507 82.5206 49.736C82.1006 50.2213 81.8906 50.8467 81.8906 51.612C81.8906 52.3773 82.1006 53.0073 82.5206 53.502C82.95 53.9873 83.5193 54.23 84.2286 54.23C84.938 54.23 85.512 53.936 85.9506 53.348L86.6506 53.992C86.044 54.776 85.218 55.168 84.1726 55.168ZM90.4043 55H89.3543V49.162H87.3943V48.238H92.3783V49.162H90.4043V55ZM99.1311 54.146C98.5244 54.8273 97.7171 55.168 96.7091 55.168C95.7011 55.168 94.8891 54.8273 94.2731 54.146C93.6664 53.4647 93.3631 52.62 93.3631 51.612C93.3631 50.604 93.6664 49.764 94.2731 49.092C94.8891 48.4107 95.7011 48.07 96.7091 48.07C97.7171 48.07 98.5244 48.4107 99.1311 49.092C99.7471 49.764 100.055 50.604 100.055 51.612C100.055 52.62 99.7471 53.4647 99.1311 54.146ZM95.0571 53.474C95.4677 53.978 96.0184 54.23 96.7091 54.23C97.3997 54.23 97.9457 53.978 98.3471 53.474C98.7484 52.9607 98.9491 52.34 98.9491 51.612C98.9491 50.884 98.7484 50.268 98.3471 49.764C97.9457 49.26 97.3997 49.008 96.7091 49.008C96.0184 49.008 95.4677 49.2647 95.0571 49.778C94.6557 50.282 94.4551 50.8933 94.4551 51.612C94.4551 52.34 94.6557 52.9607 95.0571 53.474ZM105.561 55H101.767V48.238H105.491C106.079 48.238 106.541 48.3967 106.877 48.714C107.222 49.0313 107.395 49.4513 107.395 49.974C107.395 50.3567 107.287 50.688 107.073 50.968C106.867 51.2387 106.611 51.4207 106.303 51.514C106.648 51.598 106.937 51.7987 107.171 52.116C107.413 52.4333 107.535 52.7833 107.535 53.166C107.535 53.7167 107.357 54.16 107.003 54.496C106.657 54.832 106.177 55 105.561 55ZM105.351 54.076C105.687 54.076 105.953 53.9827 106.149 53.796C106.345 53.6093 106.443 53.3573 106.443 53.04C106.443 52.7507 106.345 52.5033 106.149 52.298C105.953 52.0927 105.687 51.99 105.351 51.99H102.817V54.076H105.351ZM105.309 51.066C105.626 51.066 105.873 50.982 106.051 50.814C106.228 50.6367 106.317 50.408 106.317 50.128C106.317 49.8293 106.228 49.596 106.051 49.428C105.873 49.2507 105.626 49.162 105.309 49.162H102.817V51.066H105.309ZM112.501 55.168C111.502 55.168 110.69 54.832 110.065 54.16C109.439 53.4787 109.127 52.6293 109.127 51.612C109.127 50.5947 109.439 49.75 110.065 49.078C110.69 48.406 111.502 48.07 112.501 48.07C113.546 48.07 114.372 48.462 114.979 49.246L114.279 49.89C113.849 49.302 113.275 49.008 112.557 49.008C111.847 49.008 111.278 49.2507 110.849 49.736C110.429 50.2213 110.219 50.8467 110.219 51.612C110.219 52.3773 110.429 53.0073 110.849 53.502C111.278 53.9873 111.847 54.23 112.557 54.23C113.266 54.23 113.84 53.936 114.279 53.348L114.979 53.992C114.372 54.776 113.546 55.168 112.501 55.168ZM122.4 55H121.056L118.62 51.962L117.5 53.068V55H116.45V48.238H117.5V51.836L121.056 48.238H122.386L119.39 51.304L122.4 55ZM124.65 55H123.642V48.238H124.692V53.404L128.234 48.238H129.27V55H128.22V49.736L124.65 55ZM132.374 55H131.366V48.238H132.416V53.404L135.958 48.238H136.994V55H135.944V49.736L132.374 55ZM136.63 46.236C136.024 47.0573 135.207 47.468 134.18 47.468C133.163 47.468 132.342 47.0573 131.716 46.236L132.234 45.788C132.72 46.46 133.368 46.796 134.18 46.796C135.002 46.796 135.646 46.46 136.112 45.788L136.63 46.236ZM148.076 54.146C147.47 54.8273 146.662 55.168 145.654 55.168C144.646 55.168 143.834 54.8273 143.218 54.146C142.612 53.4647 142.308 52.62 142.308 51.612C142.308 50.604 142.612 49.764 143.218 49.092C143.834 48.4107 144.646 48.07 145.654 48.07C146.662 48.07 147.47 48.4107 148.076 49.092C148.692 49.764 149 50.604 149 51.612C149 52.62 148.692 53.4647 148.076 54.146ZM144.002 53.474C144.413 53.978 144.964 54.23 145.654 54.23C146.345 54.23 146.891 53.978 147.292 53.474C147.694 52.9607 147.894 52.34 147.894 51.612C147.894 50.884 147.694 50.268 147.292 49.764C146.891 49.26 146.345 49.008 145.654 49.008C144.964 49.008 144.413 49.2647 144.002 49.778C143.601 50.282 143.4 50.8933 143.4 51.612C143.4 52.34 143.601 52.9607 144.002 53.474ZM153.694 55.168C152.695 55.168 151.883 54.832 151.258 54.16C150.633 53.4787 150.32 52.6293 150.32 51.612C150.32 50.5947 150.633 49.75 151.258 49.078C151.883 48.406 152.695 48.07 153.694 48.07C154.739 48.07 155.565 48.462 156.172 49.246L155.472 49.89C155.043 49.302 154.469 49.008 153.75 49.008C153.041 49.008 152.471 49.2507 152.042 49.736C151.622 50.2213 151.412 50.8467 151.412 51.612C151.412 52.3773 151.622 53.0073 152.042 53.502C152.471 53.9873 153.041 54.23 153.75 54.23C154.459 54.23 155.033 53.936 155.472 53.348L156.172 53.992C155.565 54.776 154.739 55.168 153.694 55.168ZM159.926 55H158.876V49.162H156.916V48.238H161.9V49.162H159.926V55ZM166.609 55.168C165.657 55.168 164.896 54.7713 164.327 53.978V57.576H163.277V48.238H164.327V49.246C164.579 48.8913 164.905 48.6067 165.307 48.392C165.708 48.1773 166.142 48.07 166.609 48.07C167.505 48.07 168.228 48.392 168.779 49.036C169.339 49.6707 169.619 50.5293 169.619 51.612C169.619 52.6947 169.339 53.558 168.779 54.202C168.228 54.846 167.505 55.168 166.609 55.168ZM166.343 54.23C167.005 54.23 167.533 53.9873 167.925 53.502C168.317 53.0073 168.513 52.3773 168.513 51.612C168.513 50.8467 168.317 50.2213 167.925 49.736C167.533 49.2507 167.005 49.008 166.343 49.008C165.941 49.008 165.549 49.1153 165.167 49.33C164.793 49.5353 164.513 49.7873 164.327 50.086V53.138C164.513 53.446 164.793 53.7073 165.167 53.922C165.549 54.1273 165.941 54.23 166.343 54.23ZM176.664 54.146C176.058 54.8273 175.25 55.168 174.242 55.168C173.234 55.168 172.422 54.8273 171.806 54.146C171.2 53.4647 170.896 52.62 170.896 51.612C170.896 50.604 171.2 49.764 171.806 49.092C172.422 48.4107 173.234 48.07 174.242 48.07C175.25 48.07 176.058 48.4107 176.664 49.092C177.28 49.764 177.588 50.604 177.588 51.612C177.588 52.62 177.28 53.4647 176.664 54.146ZM172.59 53.474C173.001 53.978 173.552 54.23 174.242 54.23C174.933 54.23 175.479 53.978 175.88 53.474C176.282 52.9607 176.482 52.34 176.482 51.612C176.482 50.884 176.282 50.268 175.88 49.764C175.479 49.26 174.933 49.008 174.242 49.008C173.552 49.008 173.001 49.2647 172.59 49.778C172.189 50.282 171.988 50.8933 171.988 51.612C171.988 52.34 172.189 52.9607 172.59 53.474ZM183.094 55H179.3V48.238H183.024C183.612 48.238 184.074 48.3967 184.41 48.714C184.755 49.0313 184.928 49.4513 184.928 49.974C184.928 50.3567 184.821 50.688 184.606 50.968C184.401 51.2387 184.144 51.4207 183.836 51.514C184.181 51.598 184.471 51.7987 184.704 52.116C184.947 52.4333 185.068 52.7833 185.068 53.166C185.068 53.7167 184.891 54.16 184.536 54.496C184.191 54.832 183.71 55 183.094 55ZM182.884 54.076C183.22 54.076 183.486 53.9827 183.682 53.796C183.878 53.6093 183.976 53.3573 183.976 53.04C183.976 52.7507 183.878 52.5033 183.682 52.298C183.486 52.0927 183.22 51.99 182.884 51.99H180.35V54.076H182.884ZM182.842 51.066C183.159 51.066 183.407 50.982 183.584 50.814C183.761 50.6367 183.85 50.408 183.85 50.128C183.85 49.8293 183.761 49.596 183.584 49.428C183.407 49.2507 183.159 49.162 182.842 49.162H180.35V51.066H182.842Z" fill="white"/>
<path d="M43.724 15.168C42.9773 15.168 42.3147 15.0233 41.736 14.734C41.1573 14.4447 40.714 14.076 40.406 13.628L41.092 12.9C41.372 13.2733 41.7407 13.572 42.198 13.796C42.6553 14.02 43.1547 14.132 43.696 14.132C44.3773 14.132 44.9093 13.978 45.292 13.67C45.684 13.3527 45.88 12.9233 45.88 12.382C45.88 11.822 45.67 11.4067 45.25 11.136C44.8393 10.8653 44.2747 10.73 43.556 10.73C43.0053 10.73 42.6833 10.7347 42.59 10.744V9.68C42.6927 9.68933 43.0147 9.694 43.556 9.694C44.1907 9.694 44.7087 9.568 45.11 9.316C45.5207 9.05467 45.726 8.66733 45.726 8.154C45.726 7.65933 45.5253 7.272 45.124 6.992C44.732 6.70267 44.2373 6.558 43.64 6.558C42.6973 6.558 41.876 6.936 41.176 7.692L40.532 6.964C41.3253 6.00267 42.3893 5.522 43.724 5.522C44.648 5.522 45.404 5.746 45.992 6.194C46.5893 6.63267 46.888 7.23933 46.888 8.014C46.888 8.63 46.6827 9.12467 46.272 9.498C45.8613 9.862 45.3947 10.0907 44.872 10.184C45.3853 10.2307 45.8707 10.4547 46.328 10.856C46.7947 11.2573 47.028 11.7987 47.028 12.48C47.028 13.2733 46.7293 13.922 46.132 14.426C45.5347 14.9207 44.732 15.168 43.724 15.168ZM51.573 12.074H48.213V11.15H51.573V12.074ZM54.0482 15H53.0402V8.238H54.0902V13.404L57.6322 8.238H58.6682V15H57.6182V9.736L54.0482 15ZM58.3042 6.236C57.6976 7.05733 56.8809 7.468 55.8542 7.468C54.8369 7.468 54.0156 7.05733 53.3902 6.236L53.9082 5.788C54.3936 6.46 55.0422 6.796 55.8542 6.796C56.6756 6.796 57.3196 6.46 57.7862 5.788L58.3042 6.236ZM70.0022 15H68.9522V9.162H65.4242V15H64.3742V8.238H70.0022V15ZM75.4308 15.168C74.4788 15.168 73.7182 14.7713 73.1488 13.978V17.576H72.0988V8.238H73.1488V9.246C73.4008 8.89133 73.7275 8.60667 74.1288 8.392C74.5302 8.17733 74.9642 8.07 75.4308 8.07C76.3268 8.07 77.0502 8.392 77.6008 9.036C78.1608 9.67067 78.4408 10.5293 78.4408 11.612C78.4408 12.6947 78.1608 13.558 77.6008 14.202C77.0502 14.846 76.3268 15.168 75.4308 15.168ZM75.1648 14.23C75.8275 14.23 76.3548 13.9873 76.7468 13.502C77.1388 13.0073 77.3348 12.3773 77.3348 11.612C77.3348 10.8467 77.1388 10.2213 76.7468 9.736C76.3548 9.25067 75.8275 9.008 75.1648 9.008C74.7635 9.008 74.3715 9.11533 73.9888 9.33C73.6155 9.53533 73.3355 9.78733 73.1488 10.086V13.138C73.3355 13.446 73.6155 13.7073 73.9888 13.922C74.3715 14.1273 74.7635 14.23 75.1648 14.23ZM85.4865 14.146C84.8799 14.8273 84.0725 15.168 83.0645 15.168C82.0565 15.168 81.2445 14.8273 80.6285 14.146C80.0219 13.4647 79.7185 12.62 79.7185 11.612C79.7185 10.604 80.0219 9.764 80.6285 9.092C81.2445 8.41067 82.0565 8.07 83.0645 8.07C84.0725 8.07 84.8799 8.41067 85.4865 9.092C86.1025 9.764 86.4105 10.604 86.4105 11.612C86.4105 12.62 86.1025 13.4647 85.4865 14.146ZM81.4125 13.474C81.8232 13.978 82.3739 14.23 83.0645 14.23C83.7552 14.23 84.3012 13.978 84.7025 13.474C85.1039 12.9607 85.3045 12.34 85.3045 11.612C85.3045 10.884 85.1039 10.268 84.7025 9.764C84.3012 9.26 83.7552 9.008 83.0645 9.008C82.3739 9.008 81.8232 9.26467 81.4125 9.778C81.0112 10.282 80.8105 10.8933 80.8105 11.612C80.8105 12.34 81.0112 12.9607 81.4125 13.474ZM91.1743 15.168C90.1663 15.168 89.3403 14.8413 88.6963 14.188C88.0523 13.5253 87.7303 12.6667 87.7303 11.612C87.7303 10.6227 88.0476 9.78733 88.6823 9.106C89.3169 8.41533 90.1103 8.07 91.0623 8.07C92.0609 8.07 92.8496 8.41533 93.4283 9.106C94.0163 9.78733 94.3103 10.6507 94.3103 11.696V11.962H88.8363C88.8829 12.6247 89.1256 13.18 89.5643 13.628C90.0029 14.076 90.5723 14.3 91.2723 14.3C92.1123 14.3 92.8076 14.0153 93.3583 13.446L93.8623 14.132C93.1716 14.8227 92.2756 15.168 91.1743 15.168ZM93.2743 11.192C93.2649 10.6133 93.0689 10.0953 92.6863 9.638C92.3036 9.17133 91.7576 8.938 91.0483 8.938C90.3763 8.938 89.8443 9.16667 89.4523 9.624C89.0696 10.0813 88.8643 10.604 88.8363 11.192H93.2743ZM98.4049 15.168C97.1076 15.168 96.0903 14.7993 95.3529 14.062L95.8709 13.39C96.5056 13.9967 97.3503 14.3 98.4049 14.3C99.0116 14.3 99.4923 14.1927 99.8469 13.978C100.211 13.7633 100.393 13.4787 100.393 13.124C100.393 12.3773 99.6836 12.004 98.2649 12.004H96.7529V11.15H98.2649C98.8529 11.15 99.3336 11.0567 99.7069 10.87C100.08 10.674 100.267 10.3893 100.267 10.016C100.267 9.69867 100.08 9.442 99.7069 9.246C99.3336 9.04067 98.8623 8.938 98.2929 8.938C97.3503 8.938 96.5943 9.22733 96.0249 9.806L95.4789 9.162C96.1789 8.44333 97.1029 8.084 98.2509 8.084C99.1749 8.07467 99.9216 8.23333 100.491 8.56C101.07 8.87733 101.359 9.32067 101.359 9.89C101.359 10.3567 101.168 10.7347 100.785 11.024C100.412 11.3133 99.9963 11.486 99.5389 11.542C100.015 11.5793 100.458 11.738 100.869 12.018C101.289 12.298 101.499 12.69 101.499 13.194C101.499 13.7727 101.219 14.2487 100.659 14.622C100.108 14.986 99.3569 15.168 98.4049 15.168ZM102.404 16.722V14.132C102.75 14.0667 103.02 13.8613 103.216 13.516C103.412 13.1613 103.571 12.5127 103.692 11.57L104.126 8.238H108.83V14.076H109.614V16.722H108.564V15H103.454V16.722H102.404ZM105.05 9.162L104.742 11.696C104.584 12.8813 104.257 13.6747 103.762 14.076H107.78V9.162H105.05ZM115.821 15H114.701V5.662H115.863V12.956L121.239 5.662H122.429V15H121.267V7.552L115.821 15ZM128.365 15H124.571V8.238H128.295C128.883 8.238 129.345 8.39667 129.681 8.714C130.027 9.03133 130.199 9.45133 130.199 9.974C130.199 10.3567 130.092 10.688 129.877 10.968C129.672 11.2387 129.415 11.4207 129.107 11.514C129.453 11.598 129.742 11.7987 129.975 12.116C130.218 12.4333 130.339 12.7833 130.339 13.166C130.339 13.7167 130.162 14.16 129.807 14.496C129.462 14.832 128.981 15 128.365 15ZM128.155 14.076C128.491 14.076 128.757 13.9827 128.953 13.796C129.149 13.6093 129.247 13.3573 129.247 13.04C129.247 12.7507 129.149 12.5033 128.953 12.298C128.757 12.0927 128.491 11.99 128.155 11.99H125.621V14.076H128.155ZM128.113 11.066C128.431 11.066 128.678 10.982 128.855 10.814C129.033 10.6367 129.121 10.408 129.121 10.128C129.121 9.82933 129.033 9.596 128.855 9.428C128.678 9.25067 128.431 9.162 128.113 9.162H125.621V11.066H128.113ZM137.601 15H136.551V14.23C135.982 14.8553 135.235 15.168 134.311 15.168C133.686 15.168 133.135 14.9673 132.659 14.566C132.183 14.1647 131.945 13.6187 131.945 12.928C131.945 12.2187 132.179 11.6727 132.645 11.29C133.121 10.898 133.677 10.702 134.311 10.702C135.273 10.702 136.019 11.01 136.551 11.626V10.408C136.551 9.96 136.393 9.61 136.075 9.358C135.758 9.106 135.347 8.98 134.843 8.98C134.05 8.98 133.359 9.29267 132.771 9.918L132.281 9.19C133 8.44333 133.901 8.07 134.983 8.07C135.758 8.07 136.388 8.25667 136.873 8.63C137.359 9.00333 137.601 9.57733 137.601 10.352V15ZM134.689 14.412C135.529 14.412 136.15 14.132 136.551 13.572V12.298C136.15 11.738 135.529 11.458 134.689 11.458C134.204 11.458 133.803 11.598 133.485 11.878C133.177 12.1487 133.023 12.5033 133.023 12.942C133.023 13.3713 133.177 13.726 133.485 14.006C133.803 14.2767 134.204 14.412 134.689 14.412ZM140.756 15H139.706V8.238H140.756V11.052H144.284V8.238H145.334V15H144.284V11.976H140.756V15ZM152.807 14.146C152.2 14.8273 151.393 15.168 150.385 15.168C149.377 15.168 148.565 14.8273 147.949 14.146C147.342 13.4647 147.039 12.62 147.039 11.612C147.039 10.604 147.342 9.764 147.949 9.092C148.565 8.41067 149.377 8.07 150.385 8.07C151.393 8.07 152.2 8.41067 152.807 9.092C153.423 9.764 153.731 10.604 153.731 11.612C153.731 12.62 153.423 13.4647 152.807 14.146ZM148.733 13.474C149.144 13.978 149.694 14.23 150.385 14.23C151.076 14.23 151.622 13.978 152.023 13.474C152.424 12.9607 152.625 12.34 152.625 11.612C152.625 10.884 152.424 10.268 152.023 9.764C151.622 9.26 151.076 9.008 150.385 9.008C149.694 9.008 149.144 9.26467 148.733 9.778C148.332 10.282 148.131 10.8933 148.131 11.612C148.131 12.34 148.332 12.9607 148.733 13.474ZM159.237 15H155.443V8.238H159.167C159.755 8.238 160.217 8.39667 160.553 8.714C160.898 9.03133 161.071 9.45133 161.071 9.974C161.071 10.3567 160.963 10.688 160.749 10.968C160.543 11.2387 160.287 11.4207 159.979 11.514C160.324 11.598 160.613 11.7987 160.847 12.116C161.089 12.4333 161.211 12.7833 161.211 13.166C161.211 13.7167 161.033 14.16 160.679 14.496C160.333 14.832 159.853 15 159.237 15ZM159.027 14.076C159.363 14.076 159.629 13.9827 159.825 13.796C160.021 13.6093 160.119 13.3573 160.119 13.04C160.119 12.7507 160.021 12.5033 159.825 12.298C159.629 12.0927 159.363 11.99 159.027 11.99H156.493V14.076H159.027ZM158.985 11.066C159.302 11.066 159.549 10.982 159.727 10.814C159.904 10.6367 159.993 10.408 159.993 10.128C159.993 9.82933 159.904 9.596 159.727 9.428C159.549 9.25067 159.302 9.162 158.985 9.162H156.493V11.066H158.985ZM168.473 15H167.423V14.23C166.853 14.8553 166.107 15.168 165.183 15.168C164.557 15.168 164.007 14.9673 163.531 14.566C163.055 14.1647 162.817 13.6187 162.817 12.928C162.817 12.2187 163.05 11.6727 163.517 11.29C163.993 10.898 164.548 10.702 165.183 10.702C166.144 10.702 166.891 11.01 167.423 11.626V10.408C167.423 9.96 167.264 9.61 166.947 9.358C166.629 9.106 166.219 8.98 165.715 8.98C164.921 8.98 164.231 9.29267 163.643 9.918L163.153 9.19C163.871 8.44333 164.772 8.07 165.855 8.07C166.629 8.07 167.259 8.25667 167.745 8.63C168.23 9.00333 168.473 9.57733 168.473 10.352V15ZM165.561 14.412C166.401 14.412 167.021 14.132 167.423 13.572V12.298C167.021 11.738 166.401 11.458 165.561 11.458C165.075 11.458 164.674 11.598 164.357 11.878C164.049 12.1487 163.895 12.5033 163.895 12.942C163.895 13.3713 164.049 13.726 164.357 14.006C164.674 14.2767 165.075 14.412 165.561 14.412Z" fill="white"/>
<path d="M43.92 95.168C43.136 95.168 42.4313 95.0233 41.806 94.734C41.1807 94.4447 40.714 94.076 40.406 93.628L41.092 92.886C41.372 93.2593 41.764 93.5627 42.268 93.796C42.7813 94.02 43.3227 94.132 43.892 94.132C44.62 94.132 45.194 93.978 45.614 93.67C46.034 93.3527 46.244 92.9233 46.244 92.382C46.244 91.822 46.0247 91.4067 45.586 91.136C45.1567 90.8653 44.5687 90.73 43.822 90.73H41.918V89.694H43.822C44.4847 89.694 45.026 89.568 45.446 89.316C45.8753 89.0547 46.09 88.6673 46.09 88.154C46.09 87.65 45.8753 87.258 45.446 86.978C45.026 86.698 44.494 86.558 43.85 86.558C42.7953 86.558 41.9133 86.936 41.204 87.692L40.56 86.964C40.9333 86.5347 41.4093 86.1893 41.988 85.928C42.576 85.6573 43.2247 85.522 43.934 85.522C44.886 85.522 45.6793 85.746 46.314 86.194C46.958 86.642 47.28 87.2487 47.28 88.014C47.28 88.63 47.07 89.1247 46.65 89.498C46.2393 89.862 45.7773 90.0907 45.264 90.184C45.7773 90.2307 46.2627 90.4547 46.72 90.856C47.1867 91.2573 47.42 91.7987 47.42 92.48C47.42 93.264 47.098 93.908 46.454 94.412C45.81 94.916 44.9653 95.168 43.92 95.168ZM54.5038 95H53.4538V94.23C52.8844 94.8553 52.1378 95.168 51.2138 95.168C50.5884 95.168 50.0378 94.9673 49.5618 94.566C49.0858 94.1647 48.8478 93.6187 48.8478 92.928C48.8478 92.2187 49.0811 91.6727 49.5478 91.29C50.0238 90.898 50.5791 90.702 51.2138 90.702C52.1751 90.702 52.9218 91.01 53.4538 91.626V90.408C53.4538 89.96 53.2951 89.61 52.9778 89.358C52.6604 89.106 52.2498 88.98 51.7458 88.98C50.9524 88.98 50.2618 89.2927 49.6738 89.918L49.1838 89.19C49.9024 88.4433 50.8031 88.07 51.8858 88.07C52.6604 88.07 53.2904 88.2567 53.7758 88.63C54.2611 89.0033 54.5038 89.5773 54.5038 90.352V95ZM51.5918 94.412C52.4318 94.412 53.0524 94.132 53.4538 93.572V92.298C53.0524 91.738 52.4318 91.458 51.5918 91.458C51.1064 91.458 50.7051 91.598 50.3878 91.878C50.0798 92.1487 49.9258 92.5033 49.9258 92.942C49.9258 93.3713 50.0798 93.726 50.3878 94.006C50.7051 94.2767 51.1064 94.412 51.5918 94.412ZM62.2366 95H61.1866V89.162H57.6586V95H56.6086V88.238H62.2366V95ZM65.3412 95H64.3332V88.238H65.3832V93.404L68.9252 88.238H69.9612V95H68.9112V89.736L65.3412 95ZM75.0398 95.168C74.0411 95.168 73.2291 94.832 72.6038 94.16C71.9785 93.4787 71.6658 92.6293 71.6658 91.612C71.6658 90.5947 71.9785 89.75 72.6038 89.078C73.2291 88.406 74.0411 88.07 75.0398 88.07C76.0851 88.07 76.9111 88.462 77.5178 89.246L76.8178 89.89C76.3885 89.302 75.8145 89.008 75.0958 89.008C74.3865 89.008 73.8171 89.2507 73.3878 89.736C72.9678 90.2213 72.7578 90.8467 72.7578 91.612C72.7578 92.3773 72.9678 93.0073 73.3878 93.502C73.8171 93.9873 74.3865 94.23 75.0958 94.23C75.8051 94.23 76.3791 93.936 76.8178 93.348L77.5178 93.992C76.9111 94.776 76.0851 95.168 75.0398 95.168ZM78.9895 88.238H80.0395V90.856H82.5735C83.2455 90.856 83.7681 91.0567 84.1415 91.458C84.5148 91.85 84.7015 92.34 84.7015 92.928C84.7015 93.516 84.5101 94.0107 84.1275 94.412C83.7541 94.804 83.2361 95 82.5735 95H78.9895V88.238ZM82.4615 91.78H80.0395V94.076H82.4615C82.8348 94.076 83.1195 93.9733 83.3155 93.768C83.5208 93.5533 83.6235 93.2733 83.6235 92.928C83.6235 92.5827 83.5208 92.3073 83.3155 92.102C83.1195 91.8873 82.8348 91.78 82.4615 91.78ZM95.5413 95H94.4913V89.162H90.9633V95H89.9133V88.238H95.5413V95ZM103.014 94.146C102.407 94.8273 101.6 95.168 100.592 95.168C99.5839 95.168 98.7719 94.8273 98.1559 94.146C97.5492 93.4647 97.2459 92.62 97.2459 91.612C97.2459 90.604 97.5492 89.764 98.1559 89.092C98.7719 88.4107 99.5839 88.07 100.592 88.07C101.6 88.07 102.407 88.4107 103.014 89.092C103.63 89.764 103.938 90.604 103.938 91.612C103.938 92.62 103.63 93.4647 103.014 94.146ZM98.9399 93.474C99.3506 93.978 99.9012 94.23 100.592 94.23C101.283 94.23 101.829 93.978 102.23 93.474C102.631 92.9607 102.832 92.34 102.832 91.612C102.832 90.884 102.631 90.268 102.23 89.764C101.829 89.26 101.283 89.008 100.592 89.008C99.9012 89.008 99.3506 89.2647 98.9399 89.778C98.5386 90.282 98.3379 90.8933 98.3379 91.612C98.3379 92.34 98.5386 92.9607 98.9399 93.474ZM108.461 96.722V94.132C108.806 94.0667 109.077 93.8613 109.273 93.516C109.469 93.1613 109.628 92.5127 109.749 91.57L110.183 88.238H114.887V94.076H115.671V96.722H114.621V95H109.511V96.722H108.461ZM111.107 89.162L110.799 91.696C110.64 92.8813 110.314 93.6747 109.819 94.076H113.837V89.162H111.107ZM122.483 94.146C121.876 94.8273 121.069 95.168 120.061 95.168C119.053 95.168 118.241 94.8273 117.625 94.146C117.018 93.4647 116.715 92.62 116.715 91.612C116.715 90.604 117.018 89.764 117.625 89.092C118.241 88.4107 119.053 88.07 120.061 88.07C121.069 88.07 121.876 88.4107 122.483 89.092C123.099 89.764 123.407 90.604 123.407 91.612C123.407 92.62 123.099 93.4647 122.483 94.146ZM118.409 93.474C118.819 93.978 119.37 94.23 120.061 94.23C120.751 94.23 121.297 93.978 121.699 93.474C122.1 92.9607 122.301 92.34 122.301 91.612C122.301 90.884 122.1 90.268 121.699 89.764C121.297 89.26 120.751 89.008 120.061 89.008C119.37 89.008 118.819 89.2647 118.409 89.778C118.007 90.282 117.807 90.8933 117.807 91.612C117.807 92.34 118.007 92.9607 118.409 93.474ZM129.85 88.238V89.162H126.168V95H125.118V88.238H129.85ZM136.592 94.146C135.985 94.8273 135.178 95.168 134.17 95.168C133.162 95.168 132.35 94.8273 131.734 94.146C131.127 93.4647 130.824 92.62 130.824 91.612C130.824 90.604 131.127 89.764 131.734 89.092C132.35 88.4107 133.162 88.07 134.17 88.07C135.178 88.07 135.985 88.4107 136.592 89.092C137.208 89.764 137.516 90.604 137.516 91.612C137.516 92.62 137.208 93.4647 136.592 94.146ZM132.518 93.474C132.929 93.978 133.479 94.23 134.17 94.23C134.861 94.23 135.407 93.978 135.808 93.474C136.209 92.9607 136.41 92.34 136.41 91.612C136.41 90.884 136.209 90.268 135.808 89.764C135.407 89.26 134.861 89.008 134.17 89.008C133.479 89.008 132.929 89.2647 132.518 89.778C132.117 90.282 131.916 90.8933 131.916 91.612C131.916 92.34 132.117 92.9607 132.518 93.474ZM143.022 95H139.228V88.238H142.952C143.54 88.238 144.002 88.3967 144.338 88.714C144.683 89.0313 144.856 89.4513 144.856 89.974C144.856 90.3567 144.748 90.688 144.534 90.968C144.328 91.2387 144.072 91.4207 143.764 91.514C144.109 91.598 144.398 91.7987 144.632 92.116C144.874 92.4333 144.996 92.7833 144.996 93.166C144.996 93.7167 144.818 94.16 144.464 94.496C144.118 94.832 143.638 95 143.022 95ZM142.812 94.076C143.148 94.076 143.414 93.9827 143.61 93.796C143.806 93.6093 143.904 93.3573 143.904 93.04C143.904 92.7507 143.806 92.5033 143.61 92.298C143.414 92.0927 143.148 91.99 142.812 91.99H140.278V94.076H142.812ZM142.77 91.066C143.087 91.066 143.334 90.982 143.512 90.814C143.689 90.6367 143.778 90.408 143.778 90.128C143.778 89.8293 143.689 89.596 143.512 89.428C143.334 89.2507 143.087 89.162 142.77 89.162H140.278V91.066H142.77ZM152.356 94.146C151.749 94.8273 150.942 95.168 149.934 95.168C148.926 95.168 148.114 94.8273 147.498 94.146C146.891 93.4647 146.588 92.62 146.588 91.612C146.588 90.604 146.891 89.764 147.498 89.092C148.114 88.4107 148.926 88.07 149.934 88.07C150.942 88.07 151.749 88.4107 152.356 89.092C152.972 89.764 153.28 90.604 153.28 91.612C153.28 92.62 152.972 93.4647 152.356 94.146ZM148.282 93.474C148.692 93.978 149.243 94.23 149.934 94.23C150.624 94.23 151.17 93.978 151.572 93.474C151.973 92.9607 152.174 92.34 152.174 91.612C152.174 90.884 151.973 90.268 151.572 89.764C151.17 89.26 150.624 89.008 149.934 89.008C149.243 89.008 148.692 89.2647 148.282 89.778C147.88 90.282 147.68 90.8933 147.68 91.612C147.68 92.34 147.88 92.9607 148.282 93.474ZM158.323 95.168C157.371 95.168 156.611 94.7713 156.041 93.978V97.576H154.991V88.238H156.041V89.246C156.293 88.8913 156.62 88.6067 157.021 88.392C157.423 88.1773 157.857 88.07 158.323 88.07C159.219 88.07 159.943 88.392 160.493 89.036C161.053 89.6707 161.333 90.5293 161.333 91.612C161.333 92.6947 161.053 93.558 160.493 94.202C159.943 94.846 159.219 95.168 158.323 95.168ZM158.057 94.23C158.72 94.23 159.247 93.9873 159.639 93.502C160.031 93.0073 160.227 92.3773 160.227 91.612C160.227 90.8467 160.031 90.2213 159.639 89.736C159.247 89.2507 158.72 89.008 158.057 89.008C157.656 89.008 157.264 89.1153 156.881 89.33C156.508 89.5353 156.228 89.7873 156.041 90.086V93.138C156.228 93.446 156.508 93.7073 156.881 93.922C157.264 94.1273 157.656 94.23 158.057 94.23ZM166.055 95.168C165.047 95.168 164.221 94.8413 163.577 94.188C162.933 93.5253 162.611 92.6667 162.611 91.612C162.611 90.6227 162.928 89.7873 163.563 89.106C164.198 88.4153 164.991 88.07 165.943 88.07C166.942 88.07 167.73 88.4153 168.309 89.106C168.897 89.7873 169.191 90.6507 169.191 91.696V91.962H163.717C163.764 92.6247 164.006 93.18 164.445 93.628C164.884 94.076 165.453 94.3 166.153 94.3C166.993 94.3 167.688 94.0153 168.239 93.446L168.743 94.132C168.052 94.8227 167.156 95.168 166.055 95.168ZM168.155 91.192C168.146 90.6133 167.95 90.0953 167.567 89.638C167.184 89.1713 166.638 88.938 165.929 88.938C165.257 88.938 164.725 89.1667 164.333 89.624C163.95 90.0813 163.745 90.604 163.717 91.192H168.155ZM171.942 95H170.892V88.238H171.942V91.052H175.47V88.238H176.52V95H175.47V91.976H171.942V95ZM179.666 95H178.616V88.238H179.666V91.052H183.194V88.238H184.244V95H183.194V91.976H179.666V95ZM191.717 94.146C191.11 94.8273 190.303 95.168 189.295 95.168C188.287 95.168 187.475 94.8273 186.859 94.146C186.252 93.4647 185.949 92.62 185.949 91.612C185.949 90.604 186.252 89.764 186.859 89.092C187.475 88.4107 188.287 88.07 189.295 88.07C190.303 88.07 191.11 88.4107 191.717 89.092C192.333 89.764 192.641 90.604 192.641 91.612C192.641 92.62 192.333 93.4647 191.717 94.146ZM187.643 93.474C188.054 93.978 188.604 94.23 189.295 94.23C189.986 94.23 190.532 93.978 190.933 93.474C191.334 92.9607 191.535 92.34 191.535 91.612C191.535 90.884 191.334 90.268 190.933 89.764C190.532 89.26 189.986 89.008 189.295 89.008C188.604 89.008 188.054 89.2647 187.643 89.778C187.242 90.282 187.041 90.8933 187.041 91.612C187.041 92.34 187.242 92.9607 187.643 93.474ZM197.335 95.168C196.336 95.168 195.524 94.832 194.899 94.16C194.273 93.4787 193.961 92.6293 193.961 91.612C193.961 90.5947 194.273 89.75 194.899 89.078C195.524 88.406 196.336 88.07 197.335 88.07C198.38 88.07 199.206 88.462 199.813 89.246L199.113 89.89C198.683 89.302 198.109 89.008 197.391 89.008C196.681 89.008 196.112 89.2507 195.683 89.736C195.263 90.2213 195.053 90.8467 195.053 91.612C195.053 92.3773 195.263 93.0073 195.683 93.502C196.112 93.9873 196.681 94.23 197.391 94.23C198.1 94.23 198.674 93.936 199.113 93.348L199.813 93.992C199.206 94.776 198.38 95.168 197.335 95.168ZM203.566 95H202.516V89.162H200.556V88.238H205.54V89.162H203.566V95ZM207.925 95H206.917V88.238H207.967V93.404L211.509 88.238H212.545V95H211.495V89.736L207.925 95Z" fill="white"/>
<g clip-path="url(#clip0_51621_47)">
<path d="M5 80.625C5 80.4592 4.93415 80.3003 4.81694 80.1831C4.69973 80.0658 4.54076 80 4.375 80C4.20924 80 4.05027 80.0658 3.93306 80.1831C3.81585 80.3003 3.75 80.4592 3.75 80.625V81.25H2.5C1.83696 81.25 1.20107 81.5134 0.732233 81.9822C0.263392 82.4511 0 83.087 0 83.75L0 85H20V83.75C20 83.087 19.7366 82.4511 19.2678 81.9822C18.7989 81.5134 18.163 81.25 17.5 81.25H16.25V80.625C16.25 80.4592 16.1842 80.3003 16.0669 80.1831C15.9497 80.0658 15.7908 80 15.625 80C15.4592 80 15.3003 80.0658 15.1831 80.1831C15.0658 80.3003 15 80.4592 15 80.625V81.25H5V80.625ZM20 97.5V86.25H0V97.5C0 98.163 0.263392 98.7989 0.732233 99.2678C1.20107 99.7366 1.83696 100 2.5 100H17.5C18.163 100 18.7989 99.7366 19.2678 99.2678C19.7366 98.7989 20 98.163 20 97.5ZM11.875 88.75H13.125C13.2908 88.75 13.4497 88.8158 13.5669 88.9331C13.6842 89.0503 13.75 89.2092 13.75 89.375V90.625C13.75 90.7908 13.6842 90.9497 13.5669 91.0669C13.4497 91.1842 13.2908 91.25 13.125 91.25H11.875C11.7092 91.25 11.5503 91.1842 11.4331 91.0669C11.3158 90.9497 11.25 90.7908 11.25 90.625V89.375C11.25 89.2092 11.3158 89.0503 11.4331 88.9331C11.5503 88.8158 11.7092 88.75 11.875 88.75ZM15.625 88.75H16.875C17.0408 88.75 17.1997 88.8158 17.3169 88.9331C17.4342 89.0503 17.5 89.2092 17.5 89.375V90.625C17.5 90.7908 17.4342 90.9497 17.3169 91.0669C17.1997 91.1842 17.0408 91.25 16.875 91.25H15.625C15.4592 91.25 15.3003 91.1842 15.1831 91.0669C15.0658 90.9497 15 90.7908 15 90.625V89.375C15 89.2092 15.0658 89.0503 15.1831 88.9331C15.3003 88.8158 15.4592 88.75 15.625 88.75ZM2.5 93.125C2.5 92.9592 2.56585 92.8003 2.68306 92.6831C2.80027 92.5658 2.95924 92.5 3.125 92.5H4.375C4.54076 92.5 4.69973 92.5658 4.81694 92.6831C4.93415 92.8003 5 92.9592 5 93.125V94.375C5 94.5408 4.93415 94.6997 4.81694 94.8169C4.69973 94.9342 4.54076 95 4.375 95H3.125C2.95924 95 2.80027 94.9342 2.68306 94.8169C2.56585 94.6997 2.5 94.5408 2.5 94.375V93.125ZM6.875 92.5H8.125C8.29076 92.5 8.44973 92.5658 8.56694 92.6831C8.68415 92.8003 8.75 92.9592 8.75 93.125V94.375C8.75 94.5408 8.68415 94.6997 8.56694 94.8169C8.44973 94.9342 8.29076 95 8.125 95H6.875C6.70924 95 6.55027 94.9342 6.43306 94.8169C6.31585 94.6997 6.25 94.5408 6.25 94.375V93.125C6.25 92.9592 6.31585 92.8003 6.43306 92.6831C6.55027 92.5658 6.70924 92.5 6.875 92.5Z" fill="white"/>
</g>
<path d="M9.87501 1C8.0523 1.00215 6.30487 1.72717 5.01602 3.01602C3.72718 4.30486 3.00216 6.0523 3.00001 7.875C2.99782 9.36452 3.48437 10.8136 4.38501 12C4.38501 12 4.57251 12.2469 4.60313 12.2825L9.87501 18.5L15.1494 12.2794C15.1769 12.2463 15.365 12 15.365 12L15.3656 11.9981C16.2658 10.8123 16.7521 9.36383 16.75 7.875C16.7479 6.0523 16.0228 4.30486 14.734 3.01602C13.4451 1.72717 11.6977 1.00215 9.87501 1ZM9.87501 10.375C9.38055 10.375 8.89721 10.2284 8.48608 9.95367C8.07496 9.67897 7.75453 9.28852 7.56531 8.83171C7.37609 8.37489 7.32658 7.87223 7.42304 7.38727C7.51951 6.90232 7.75761 6.45686 8.10724 6.10723C8.45687 5.7576 8.90233 5.5195 9.38728 5.42304C9.87223 5.32657 10.3749 5.37608 10.8317 5.5653C11.2885 5.75452 11.679 6.07495 11.9537 6.48607C12.2284 6.8972 12.375 7.38055 12.375 7.875C12.3742 8.53779 12.1105 9.17319 11.6419 9.64185C11.1732 10.1105 10.5378 10.3742 9.87501 10.375Z" fill="white"/>
<g clip-path="url(#clip1_51621_47)">
<path d="M6.02683 45.3672C5.72703 44.3515 4.91324 44.4628 4.35683 44.9359C2.9862 46.202 1.20154 48.8594 2.34374 52.6859C3.30031 55.9276 7.28064 58.0007 7.28064 58.0007H2.64064C2.64064 58.0007 0.244811 55.3155 0.0306387 52.1572C-0.240621 48.1642 1.35857 45.6459 3.21463 44.0042C4.95645 42.4598 6.61263 42.0007 6.61263 42.0007L10.0005 53.1007L13.3883 42.0007C13.3883 42.0007 15.0445 42.4598 16.7863 44.0042C18.6424 45.6459 20.2415 48.1642 19.9703 52.1572C19.7561 55.3155 17.3603 58.0007 17.3603 58.0007H12.7203C12.7203 58.0007 16.7003 55.9276 17.6572 52.6859C18.7994 48.8598 17.0147 46.2024 15.6441 44.9359C15.0873 44.4628 14.2735 44.3515 13.9741 45.3672C12.9461 48.6089 10.0009 57.8972 10.0009 57.8972C10.0009 57.8972 7.05564 48.6058 6.02767 45.3672H6.02683Z" fill="white"/>
</g>
<defs>
<clipPath id="clip0_51621_47">
<rect width="20" height="20" fill="white" transform="translate(0 80)"/>
</clipPath>
<clipPath id="clip1_51621_47">
<rect width="20" height="16" fill="white" transform="translate(0 42)"/>
</clipPath>
</defs>
</svg>
