<svg width="302" height="100" viewBox="0 0 302 100" fill="none" xmlns="http://www.w3.org/2000/svg">
<g clip-path="url(#clip0_1_129)">
<path d="M5 80.625C5 80.4592 4.93415 80.3003 4.81694 80.1831C4.69973 80.0658 4.54076 80 4.375 80C4.20924 80 4.05027 80.0658 3.93306 80.1831C3.81585 80.3003 3.75 80.4592 3.75 80.625V81.25H2.5C1.83696 81.25 1.20107 81.5134 0.732233 81.9822C0.263392 82.4511 0 83.087 0 83.75L0 85H20V83.75C20 83.087 19.7366 82.4511 19.2678 81.9822C18.7989 81.5134 18.163 81.25 17.5 81.25H16.25V80.625C16.25 80.4592 16.1842 80.3003 16.0669 80.1831C15.9497 80.0658 15.7908 80 15.625 80C15.4592 80 15.3003 80.0658 15.1831 80.1831C15.0658 80.3003 15 80.4592 15 80.625V81.25H5V80.625ZM20 97.5V86.25H0V97.5C0 98.163 0.263392 98.7989 0.732233 99.2678C1.20107 99.7366 1.83696 100 2.5 100H17.5C18.163 100 18.7989 99.7366 19.2678 99.2678C19.7366 98.7989 20 98.163 20 97.5ZM11.875 88.75H13.125C13.2908 88.75 13.4497 88.8158 13.5669 88.9331C13.6842 89.0503 13.75 89.2092 13.75 89.375V90.625C13.75 90.7908 13.6842 90.9497 13.5669 91.0669C13.4497 91.1842 13.2908 91.25 13.125 91.25H11.875C11.7092 91.25 11.5503 91.1842 11.4331 91.0669C11.3158 90.9497 11.25 90.7908 11.25 90.625V89.375C11.25 89.2092 11.3158 89.0503 11.4331 88.9331C11.5503 88.8158 11.7092 88.75 11.875 88.75ZM15.625 88.75H16.875C17.0408 88.75 17.1997 88.8158 17.3169 88.9331C17.4342 89.0503 17.5 89.2092 17.5 89.375V90.625C17.5 90.7908 17.4342 90.9497 17.3169 91.0669C17.1997 91.1842 17.0408 91.25 16.875 91.25H15.625C15.4592 91.25 15.3003 91.1842 15.1831 91.0669C15.0658 90.9497 15 90.7908 15 90.625V89.375C15 89.2092 15.0658 89.0503 15.1831 88.9331C15.3003 88.8158 15.4592 88.75 15.625 88.75ZM2.5 93.125C2.5 92.9592 2.56585 92.8003 2.68306 92.6831C2.80027 92.5658 2.95924 92.5 3.125 92.5H4.375C4.54076 92.5 4.69973 92.5658 4.81694 92.6831C4.93415 92.8003 5 92.9592 5 93.125V94.375C5 94.5408 4.93415 94.6997 4.81694 94.8169C4.69973 94.9342 4.54076 95 4.375 95H3.125C2.95924 95 2.80027 94.9342 2.68306 94.8169C2.56585 94.6997 2.5 94.5408 2.5 94.375V93.125ZM6.875 92.5H8.125C8.29076 92.5 8.44973 92.5658 8.56694 92.6831C8.68415 92.8003 8.75 92.9592 8.75 93.125V94.375C8.75 94.5408 8.68415 94.6997 8.56694 94.8169C8.44973 94.9342 8.29076 95 8.125 95H6.875C6.70924 95 6.55027 94.9342 6.43306 94.8169C6.31585 94.6997 6.25 94.5408 6.25 94.375V93.125C6.25 92.9592 6.31585 92.8003 6.43306 92.6831C6.55027 92.5658 6.70924 92.5 6.875 92.5V92.5Z" fill="white"/>
</g>
<path d="M10 1.25C8.1773 1.25215 6.42987 1.97717 5.14102 3.26602C3.85218 4.55486 3.12716 6.3023 3.12501 8.125C3.12282 9.61452 3.60937 11.0636 4.51001 12.25C4.51001 12.25 4.69751 12.4969 4.72813 12.5325L10 18.75L15.2744 12.5294C15.3019 12.4963 15.49 12.25 15.49 12.25L15.4906 12.2481C16.3908 11.0623 16.8771 9.61383 16.875 8.125C16.8729 6.3023 16.1478 4.55486 14.859 3.26602C13.5701 1.97717 11.8227 1.25215 10 1.25V1.25ZM10 10.625C9.50555 10.625 9.02221 10.4784 8.61108 10.2037C8.19996 9.92897 7.87953 9.53852 7.69031 9.08171C7.50109 8.62489 7.45158 8.12223 7.54804 7.63727C7.64451 7.15232 7.88261 6.70686 8.23224 6.35723C8.58187 6.0076 9.02733 5.7695 9.51228 5.67304C9.99723 5.57657 10.4999 5.62608 10.9567 5.8153C11.4135 6.00452 11.804 6.32495 12.0787 6.73607C12.3534 7.1472 12.5 7.63055 12.5 8.125C12.4992 8.78779 12.2355 9.42319 11.7669 9.89185C11.2982 10.3605 10.6628 10.6242 10 10.625V10.625Z" fill="white"/>
<g clip-path="url(#clip1_1_129)">
<path d="M6.02683 45.3671C5.72703 44.3514 4.91324 44.4627 4.35683 44.9358C2.9862 46.2018 1.20154 48.8593 2.34374 52.6858C3.30031 55.9275 7.28064 58.0006 7.28064 58.0006H2.64064C2.64064 58.0006 0.244811 55.3154 0.0306387 52.1571C-0.240621 48.1641 1.35857 45.6458 3.21463 44.0041C4.95645 42.4597 6.61263 42.0006 6.61263 42.0006L10.0005 53.1006L13.3883 42.0006C13.3883 42.0006 15.0445 42.4597 16.7863 44.0041C18.6424 45.6458 20.2415 48.1641 19.9703 52.1571C19.7561 55.3154 17.3603 58.0006 17.3603 58.0006H12.7203C12.7203 58.0006 16.7003 55.9275 17.6572 52.6858C18.7994 48.8597 17.0147 46.2023 15.6441 44.9358C15.0873 44.4627 14.2735 44.3514 13.9741 45.3671C12.9461 48.6088 10.0009 57.8971 10.0009 57.8971C10.0009 57.8971 7.05564 48.6057 6.02767 45.3671H6.02683Z" fill="white"/>
</g>
<path d="M48.876 15H47.714V10.716H42.254V15H41.092V5.662H42.254V9.68H47.714V5.662H48.876V15ZM54.0688 15.168C53.0608 15.168 52.2348 14.8413 51.5908 14.188C50.9468 13.5253 50.6248 12.6667 50.6248 11.612C50.6248 10.6227 50.9421 9.78733 51.5768 9.106C52.2115 8.41533 53.0048 8.07 53.9568 8.07C54.9555 8.07 55.7441 8.41533 56.3228 9.106C56.9108 9.78733 57.2048 10.6507 57.2048 11.696V11.962H51.7308C51.7775 12.6247 52.0201 13.18 52.4588 13.628C52.8975 14.076 53.4668 14.3 54.1668 14.3C55.0068 14.3 55.7021 14.0153 56.2528 13.446L56.7568 14.132C56.0661 14.8227 55.1701 15.168 54.0688 15.168ZM56.1688 11.192C56.1595 10.6133 55.9635 10.0953 55.5808 9.638C55.1981 9.17133 54.6521 8.938 53.9428 8.938C53.2708 8.938 52.7388 9.16667 52.3468 9.624C51.9641 10.0813 51.7588 10.604 51.7308 11.192H56.1688ZM62.6995 15H58.9055V8.238H62.6295C63.2175 8.238 63.6795 8.39667 64.0155 8.714C64.3608 9.03133 64.5335 9.45133 64.5335 9.974C64.5335 10.3567 64.4261 10.688 64.2115 10.968C64.0061 11.2387 63.7495 11.4207 63.4415 11.514C63.7868 11.598 64.0761 11.7987 64.3095 12.116C64.5521 12.4333 64.6735 12.7833 64.6735 13.166C64.6735 13.7167 64.4961 14.16 64.1415 14.496C63.7961 14.832 63.3155 15 62.6995 15ZM62.4895 14.076C62.8255 14.076 63.0915 13.9827 63.2875 13.796C63.4835 13.6093 63.5815 13.3573 63.5815 13.04C63.5815 12.7507 63.4835 12.5033 63.2875 12.298C63.0915 12.0927 62.8255 11.99 62.4895 11.99H59.9555V14.076H62.4895ZM62.4475 11.066C62.7648 11.066 63.0121 10.982 63.1895 10.814C63.3668 10.6367 63.4555 10.408 63.4555 10.128C63.4555 9.82933 63.3668 9.596 63.1895 9.428C63.0121 9.25067 62.7648 9.162 62.4475 9.162H59.9555V11.066H62.4475ZM69.6394 15.168C68.6408 15.168 67.8288 14.832 67.2034 14.16C66.5781 13.4787 66.2654 12.6293 66.2654 11.612C66.2654 10.5947 66.5781 9.75 67.2034 9.078C67.8288 8.406 68.6408 8.07 69.6394 8.07C70.6848 8.07 71.5108 8.462 72.1174 9.246L71.4174 9.89C70.9881 9.302 70.4141 9.008 69.6954 9.008C68.9861 9.008 68.4168 9.25067 67.9874 9.736C67.5674 10.2213 67.3574 10.8467 67.3574 11.612C67.3574 12.3773 67.5674 13.0073 67.9874 13.502C68.4168 13.9873 68.9861 14.23 69.6954 14.23C70.4048 14.23 70.9788 13.936 71.4174 13.348L72.1174 13.992C71.5108 14.776 70.6848 15.168 69.6394 15.168ZM79.5391 15H78.1951L75.7591 11.962L74.6391 13.068V15H73.5891V8.238H74.6391V11.836L78.1951 8.238H79.5251L76.5291 11.304L79.5391 15ZM81.7885 15H80.7805V8.238H81.8305V13.404L85.3725 8.238H86.4085V15H85.3585V9.736L81.7885 15ZM89.5131 15H88.5051V8.238H89.5551V13.404L93.0971 8.238H94.1331V15H93.0831V9.736L89.5131 15ZM93.7691 6.236C93.1624 7.05733 92.3457 7.468 91.3191 7.468C90.3017 7.468 89.4804 7.05733 88.8551 6.236L89.3731 5.788C89.8584 6.46 90.5071 6.796 91.3191 6.796C92.1404 6.796 92.7844 6.46 93.2511 5.788L93.7691 6.236ZM102.443 15H101.281V7.202L99.7831 8.784L99.0831 8.07L101.421 5.662H102.443V15ZM109.581 15H108.419V12.634H103.981V11.668L107.985 5.662H109.581V11.612H110.897V12.634H109.581V15ZM108.419 11.612V6.74L105.143 11.612H108.419ZM115.624 15.168C115.008 15.168 114.462 15.028 113.986 14.748C113.519 14.4587 113.146 14.076 112.866 13.6C112.595 13.124 112.39 12.6107 112.25 12.06C112.119 11.5093 112.054 10.9353 112.054 10.338C112.054 9.74067 112.119 9.16667 112.25 8.616C112.39 8.06533 112.595 7.55667 112.866 7.09C113.146 6.614 113.519 6.236 113.986 5.956C114.462 5.66667 115.008 5.522 115.624 5.522C116.231 5.522 116.772 5.66667 117.248 5.956C117.724 6.236 118.097 6.614 118.368 7.09C118.648 7.55667 118.853 8.06533 118.984 8.616C119.124 9.16667 119.194 9.74067 119.194 10.338C119.194 10.9353 119.124 11.5093 118.984 12.06C118.853 12.6107 118.648 13.124 118.368 13.6C118.097 14.076 117.724 14.4587 117.248 14.748C116.772 15.028 116.231 15.168 115.624 15.168ZM114.224 13.558C114.597 13.9407 115.064 14.132 115.624 14.132C116.184 14.132 116.651 13.9407 117.024 13.558C117.397 13.166 117.654 12.6993 117.794 12.158C117.934 11.6167 118.004 11.01 118.004 10.338C118.004 9.666 117.934 9.05933 117.794 8.518C117.654 7.97667 117.397 7.51467 117.024 7.132C116.651 6.74933 116.184 6.558 115.624 6.558C115.064 6.558 114.597 6.74933 114.224 7.132C113.851 7.51467 113.594 7.97667 113.454 8.518C113.314 9.05933 113.244 9.666 113.244 10.338C113.244 11.01 113.314 11.6167 113.454 12.158C113.594 12.6993 113.851 13.166 114.224 13.558Z" fill="white"/>
<path d="M43.92 95.168C43.136 95.168 42.4313 95.0233 41.806 94.734C41.1807 94.4447 40.714 94.076 40.406 93.628L41.092 92.886C41.372 93.2593 41.764 93.5627 42.268 93.796C42.7813 94.02 43.3227 94.132 43.892 94.132C44.62 94.132 45.194 93.978 45.614 93.67C46.034 93.3527 46.244 92.9233 46.244 92.382C46.244 91.822 46.0247 91.4067 45.586 91.136C45.1567 90.8653 44.5687 90.73 43.822 90.73H41.918V89.694H43.822C44.4847 89.694 45.026 89.568 45.446 89.316C45.8753 89.0547 46.09 88.6673 46.09 88.154C46.09 87.65 45.8753 87.258 45.446 86.978C45.026 86.698 44.494 86.558 43.85 86.558C42.7953 86.558 41.9133 86.936 41.204 87.692L40.56 86.964C40.9333 86.5347 41.4093 86.1893 41.988 85.928C42.576 85.6573 43.2247 85.522 43.934 85.522C44.886 85.522 45.6793 85.746 46.314 86.194C46.958 86.642 47.28 87.2487 47.28 88.014C47.28 88.63 47.07 89.1247 46.65 89.498C46.2393 89.862 45.7773 90.0907 45.264 90.184C45.7773 90.2307 46.2627 90.4547 46.72 90.856C47.1867 91.2573 47.42 91.7987 47.42 92.48C47.42 93.264 47.098 93.908 46.454 94.412C45.81 94.916 44.9653 95.168 43.92 95.168ZM54.5038 95H53.4538V94.23C52.8844 94.8553 52.1378 95.168 51.2138 95.168C50.5884 95.168 50.0378 94.9673 49.5618 94.566C49.0858 94.1647 48.8478 93.6187 48.8478 92.928C48.8478 92.2187 49.0811 91.6727 49.5478 91.29C50.0238 90.898 50.5791 90.702 51.2138 90.702C52.1751 90.702 52.9218 91.01 53.4538 91.626V90.408C53.4538 89.96 53.2951 89.61 52.9778 89.358C52.6604 89.106 52.2498 88.98 51.7458 88.98C50.9524 88.98 50.2618 89.2927 49.6738 89.918L49.1838 89.19C49.9024 88.4433 50.8031 88.07 51.8858 88.07C52.6604 88.07 53.2904 88.2567 53.7758 88.63C54.2611 89.0033 54.5038 89.5773 54.5038 90.352V95ZM51.5918 94.412C52.4318 94.412 53.0524 94.132 53.4538 93.572V92.298C53.0524 91.738 52.4318 91.458 51.5918 91.458C51.1064 91.458 50.7051 91.598 50.3878 91.878C50.0798 92.1487 49.9258 92.5033 49.9258 92.942C49.9258 93.3713 50.0798 93.726 50.3878 94.006C50.7051 94.2767 51.1064 94.412 51.5918 94.412ZM62.2366 95H61.1866V89.162H57.6586V95H56.6086V88.238H62.2366V95ZM65.3412 95H64.3332V88.238H65.3832V93.404L68.9252 88.238H69.9612V95H68.9112V89.736L65.3412 95ZM75.0398 95.168C74.0411 95.168 73.2291 94.832 72.6038 94.16C71.9785 93.4787 71.6658 92.6293 71.6658 91.612C71.6658 90.5947 71.9785 89.75 72.6038 89.078C73.2291 88.406 74.0411 88.07 75.0398 88.07C76.0851 88.07 76.9111 88.462 77.5178 89.246L76.8178 89.89C76.3885 89.302 75.8145 89.008 75.0958 89.008C74.3865 89.008 73.8171 89.2507 73.3878 89.736C72.9678 90.2213 72.7578 90.8467 72.7578 91.612C72.7578 92.3773 72.9678 93.0073 73.3878 93.502C73.8171 93.9873 74.3865 94.23 75.0958 94.23C75.8051 94.23 76.3791 93.936 76.8178 93.348L77.5178 93.992C76.9111 94.776 76.0851 95.168 75.0398 95.168ZM78.9895 88.238H80.0395V90.856H82.5735C83.2455 90.856 83.7681 91.0567 84.1415 91.458C84.5148 91.85 84.7015 92.34 84.7015 92.928C84.7015 93.516 84.5101 94.0107 84.1275 94.412C83.7541 94.804 83.2361 95 82.5735 95H78.9895V88.238ZM82.4615 91.78H80.0395V94.076H82.4615C82.8348 94.076 83.1195 93.9733 83.3155 93.768C83.5208 93.5533 83.6235 93.2733 83.6235 92.928C83.6235 92.5827 83.5208 92.3073 83.3155 92.102C83.1195 91.8873 82.8348 91.78 82.4615 91.78ZM95.5413 95H94.4913V89.162H90.9633V95H89.9133V88.238H95.5413V95ZM103.014 94.146C102.407 94.8273 101.6 95.168 100.592 95.168C99.5839 95.168 98.7719 94.8273 98.1559 94.146C97.5492 93.4647 97.2459 92.62 97.2459 91.612C97.2459 90.604 97.5492 89.764 98.1559 89.092C98.7719 88.4107 99.5839 88.07 100.592 88.07C101.6 88.07 102.407 88.4107 103.014 89.092C103.63 89.764 103.938 90.604 103.938 91.612C103.938 92.62 103.63 93.4647 103.014 94.146ZM98.9399 93.474C99.3506 93.978 99.9012 94.23 100.592 94.23C101.283 94.23 101.829 93.978 102.23 93.474C102.631 92.9607 102.832 92.34 102.832 91.612C102.832 90.884 102.631 90.268 102.23 89.764C101.829 89.26 101.283 89.008 100.592 89.008C99.9012 89.008 99.3506 89.2647 98.9399 89.778C98.5386 90.282 98.3379 90.8933 98.3379 91.612C98.3379 92.34 98.5386 92.9607 98.9399 93.474ZM108.461 96.722V94.132C108.806 94.0667 109.077 93.8613 109.273 93.516C109.469 93.1613 109.628 92.5127 109.749 91.57L110.183 88.238H114.887V94.076H115.671V96.722H114.621V95H109.511V96.722H108.461ZM111.107 89.162L110.799 91.696C110.64 92.8813 110.314 93.6747 109.819 94.076H113.837V89.162H111.107ZM122.483 94.146C121.876 94.8273 121.069 95.168 120.061 95.168C119.053 95.168 118.241 94.8273 117.625 94.146C117.018 93.4647 116.715 92.62 116.715 91.612C116.715 90.604 117.018 89.764 117.625 89.092C118.241 88.4107 119.053 88.07 120.061 88.07C121.069 88.07 121.876 88.4107 122.483 89.092C123.099 89.764 123.407 90.604 123.407 91.612C123.407 92.62 123.099 93.4647 122.483 94.146ZM118.409 93.474C118.819 93.978 119.37 94.23 120.061 94.23C120.751 94.23 121.297 93.978 121.699 93.474C122.1 92.9607 122.301 92.34 122.301 91.612C122.301 90.884 122.1 90.268 121.699 89.764C121.297 89.26 120.751 89.008 120.061 89.008C119.37 89.008 118.819 89.2647 118.409 89.778C118.007 90.282 117.807 90.8933 117.807 91.612C117.807 92.34 118.007 92.9607 118.409 93.474ZM129.85 88.238V89.162H126.168V95H125.118V88.238H129.85ZM136.592 94.146C135.985 94.8273 135.178 95.168 134.17 95.168C133.162 95.168 132.35 94.8273 131.734 94.146C131.127 93.4647 130.824 92.62 130.824 91.612C130.824 90.604 131.127 89.764 131.734 89.092C132.35 88.4107 133.162 88.07 134.17 88.07C135.178 88.07 135.985 88.4107 136.592 89.092C137.208 89.764 137.516 90.604 137.516 91.612C137.516 92.62 137.208 93.4647 136.592 94.146ZM132.518 93.474C132.929 93.978 133.479 94.23 134.17 94.23C134.861 94.23 135.407 93.978 135.808 93.474C136.209 92.9607 136.41 92.34 136.41 91.612C136.41 90.884 136.209 90.268 135.808 89.764C135.407 89.26 134.861 89.008 134.17 89.008C133.479 89.008 132.929 89.2647 132.518 89.778C132.117 90.282 131.916 90.8933 131.916 91.612C131.916 92.34 132.117 92.9607 132.518 93.474ZM143.022 95H139.228V88.238H142.952C143.54 88.238 144.002 88.3967 144.338 88.714C144.683 89.0313 144.856 89.4513 144.856 89.974C144.856 90.3567 144.748 90.688 144.534 90.968C144.328 91.2387 144.072 91.4207 143.764 91.514C144.109 91.598 144.398 91.7987 144.632 92.116C144.874 92.4333 144.996 92.7833 144.996 93.166C144.996 93.7167 144.818 94.16 144.464 94.496C144.118 94.832 143.638 95 143.022 95ZM142.812 94.076C143.148 94.076 143.414 93.9827 143.61 93.796C143.806 93.6093 143.904 93.3573 143.904 93.04C143.904 92.7507 143.806 92.5033 143.61 92.298C143.414 92.0927 143.148 91.99 142.812 91.99H140.278V94.076H142.812ZM142.77 91.066C143.087 91.066 143.334 90.982 143.512 90.814C143.689 90.6367 143.778 90.408 143.778 90.128C143.778 89.8293 143.689 89.596 143.512 89.428C143.334 89.2507 143.087 89.162 142.77 89.162H140.278V91.066H142.77ZM152.356 94.146C151.749 94.8273 150.942 95.168 149.934 95.168C148.926 95.168 148.114 94.8273 147.498 94.146C146.891 93.4647 146.588 92.62 146.588 91.612C146.588 90.604 146.891 89.764 147.498 89.092C148.114 88.4107 148.926 88.07 149.934 88.07C150.942 88.07 151.749 88.4107 152.356 89.092C152.972 89.764 153.28 90.604 153.28 91.612C153.28 92.62 152.972 93.4647 152.356 94.146ZM148.282 93.474C148.692 93.978 149.243 94.23 149.934 94.23C150.624 94.23 151.17 93.978 151.572 93.474C151.973 92.9607 152.174 92.34 152.174 91.612C152.174 90.884 151.973 90.268 151.572 89.764C151.17 89.26 150.624 89.008 149.934 89.008C149.243 89.008 148.692 89.2647 148.282 89.778C147.88 90.282 147.68 90.8933 147.68 91.612C147.68 92.34 147.88 92.9607 148.282 93.474ZM158.323 95.168C157.371 95.168 156.611 94.7713 156.041 93.978V97.576H154.991V88.238H156.041V89.246C156.293 88.8913 156.62 88.6067 157.021 88.392C157.423 88.1773 157.857 88.07 158.323 88.07C159.219 88.07 159.943 88.392 160.493 89.036C161.053 89.6707 161.333 90.5293 161.333 91.612C161.333 92.6947 161.053 93.558 160.493 94.202C159.943 94.846 159.219 95.168 158.323 95.168ZM158.057 94.23C158.72 94.23 159.247 93.9873 159.639 93.502C160.031 93.0073 160.227 92.3773 160.227 91.612C160.227 90.8467 160.031 90.2213 159.639 89.736C159.247 89.2507 158.72 89.008 158.057 89.008C157.656 89.008 157.264 89.1153 156.881 89.33C156.508 89.5353 156.228 89.7873 156.041 90.086V93.138C156.228 93.446 156.508 93.7073 156.881 93.922C157.264 94.1273 157.656 94.23 158.057 94.23ZM166.055 95.168C165.047 95.168 164.221 94.8413 163.577 94.188C162.933 93.5253 162.611 92.6667 162.611 91.612C162.611 90.6227 162.928 89.7873 163.563 89.106C164.198 88.4153 164.991 88.07 165.943 88.07C166.942 88.07 167.73 88.4153 168.309 89.106C168.897 89.7873 169.191 90.6507 169.191 91.696V91.962H163.717C163.764 92.6247 164.006 93.18 164.445 93.628C164.884 94.076 165.453 94.3 166.153 94.3C166.993 94.3 167.688 94.0153 168.239 93.446L168.743 94.132C168.052 94.8227 167.156 95.168 166.055 95.168ZM168.155 91.192C168.146 90.6133 167.95 90.0953 167.567 89.638C167.184 89.1713 166.638 88.938 165.929 88.938C165.257 88.938 164.725 89.1667 164.333 89.624C163.95 90.0813 163.745 90.604 163.717 91.192H168.155ZM171.942 95H170.892V88.238H171.942V91.052H175.47V88.238H176.52V95H175.47V91.976H171.942V95ZM179.666 95H178.616V88.238H179.666V91.052H183.194V88.238H184.244V95H183.194V91.976H179.666V95ZM191.717 94.146C191.11 94.8273 190.303 95.168 189.295 95.168C188.287 95.168 187.475 94.8273 186.859 94.146C186.252 93.4647 185.949 92.62 185.949 91.612C185.949 90.604 186.252 89.764 186.859 89.092C187.475 88.4107 188.287 88.07 189.295 88.07C190.303 88.07 191.11 88.4107 191.717 89.092C192.333 89.764 192.641 90.604 192.641 91.612C192.641 92.62 192.333 93.4647 191.717 94.146ZM187.643 93.474C188.054 93.978 188.604 94.23 189.295 94.23C189.986 94.23 190.532 93.978 190.933 93.474C191.334 92.9607 191.535 92.34 191.535 91.612C191.535 90.884 191.334 90.268 190.933 89.764C190.532 89.26 189.986 89.008 189.295 89.008C188.604 89.008 188.054 89.2647 187.643 89.778C187.242 90.282 187.041 90.8933 187.041 91.612C187.041 92.34 187.242 92.9607 187.643 93.474ZM197.335 95.168C196.336 95.168 195.524 94.832 194.899 94.16C194.273 93.4787 193.961 92.6293 193.961 91.612C193.961 90.5947 194.273 89.75 194.899 89.078C195.524 88.406 196.336 88.07 197.335 88.07C198.38 88.07 199.206 88.462 199.813 89.246L199.113 89.89C198.683 89.302 198.109 89.008 197.391 89.008C196.681 89.008 196.112 89.2507 195.683 89.736C195.263 90.2213 195.053 90.8467 195.053 91.612C195.053 92.3773 195.263 93.0073 195.683 93.502C196.112 93.9873 196.681 94.23 197.391 94.23C198.1 94.23 198.674 93.936 199.113 93.348L199.813 93.992C199.206 94.776 198.38 95.168 197.335 95.168ZM203.566 95H202.516V89.162H200.556V88.238H205.54V89.162H203.566V95ZM207.925 95H206.917V88.238H207.967V93.404L211.509 88.238H212.545V95H211.495V89.736L207.925 95Z" fill="white"/>
<path d="M47.952 55H46.902V49.694L44.704 55H44.312L42.1 49.694V55H41.05V48.238H42.436L44.508 53.25L46.552 48.238H47.952V55ZM51.1521 54.916C51.0028 55.0653 50.8208 55.14 50.6061 55.14C50.3914 55.14 50.2094 55.0653 50.0601 54.916C49.9108 54.7667 49.8361 54.5847 49.8361 54.37C49.8361 54.1553 49.9108 53.9733 50.0601 53.824C50.2094 53.6747 50.3914 53.6 50.6061 53.6C50.8208 53.6 51.0028 53.6747 51.1521 53.824C51.3014 53.9733 51.3761 54.1553 51.3761 54.37C51.3761 54.5847 51.3014 54.7667 51.1521 54.916ZM61.348 55.168C59.9854 55.168 58.842 54.72 57.918 53.824C57.0034 52.9187 56.546 51.7567 56.546 50.338C56.546 48.9193 57.0034 47.762 57.918 46.866C58.842 45.9607 59.9854 45.508 61.348 45.508C62.8414 45.508 64.022 46.124 64.89 47.356L63.91 47.902C63.6394 47.5007 63.2754 47.174 62.818 46.922C62.3607 46.67 61.8707 46.544 61.348 46.544C60.3214 46.544 59.4627 46.9033 58.772 47.622C58.0907 48.3313 57.75 49.2367 57.75 50.338C57.75 51.4393 58.0907 52.3493 58.772 53.068C59.4627 53.7773 60.3214 54.132 61.348 54.132C61.8707 54.132 62.3607 54.0107 62.818 53.768C63.2754 53.516 63.6394 53.1847 63.91 52.774L64.904 53.32C63.9987 54.552 62.8134 55.168 61.348 55.168ZM71.971 55H70.921V49.162H67.393V55H66.343V48.238H71.971V55ZM79.3456 55H78.2956V54.23C77.7262 54.8553 76.9796 55.168 76.0556 55.168C75.4302 55.168 74.8796 54.9673 74.4036 54.566C73.9276 54.1647 73.6896 53.6187 73.6896 52.928C73.6896 52.2187 73.9229 51.6727 74.3896 51.29C74.8656 50.898 75.4209 50.702 76.0556 50.702C77.0169 50.702 77.7636 51.01 78.2956 51.626V50.408C78.2956 49.96 78.1369 49.61 77.8196 49.358C77.5022 49.106 77.0916 48.98 76.5876 48.98C75.7942 48.98 75.1036 49.2927 74.5156 49.918L74.0256 49.19C74.7442 48.4433 75.6449 48.07 76.7276 48.07C77.5022 48.07 78.1322 48.2567 78.6176 48.63C79.1029 49.0033 79.3456 49.5773 79.3456 50.352V55ZM76.4336 54.412C77.2736 54.412 77.8942 54.132 78.2956 53.572V52.298C77.8942 51.738 77.2736 51.458 76.4336 51.458C75.9482 51.458 75.5469 51.598 75.2296 51.878C74.9216 52.1487 74.7676 52.5033 74.7676 52.942C74.7676 53.3713 74.9216 53.726 75.2296 54.006C75.5469 54.2767 75.9482 54.412 76.4336 54.412ZM84.4324 55.168C83.4337 55.168 82.6217 54.832 81.9964 54.16C81.3711 53.4787 81.0584 52.6293 81.0584 51.612C81.0584 50.5947 81.3711 49.75 81.9964 49.078C82.6217 48.406 83.4337 48.07 84.4324 48.07C85.4777 48.07 86.3037 48.462 86.9104 49.246L86.2104 49.89C85.7811 49.302 85.2071 49.008 84.4884 49.008C83.7791 49.008 83.2097 49.2507 82.7804 49.736C82.3604 50.2213 82.1504 50.8467 82.1504 51.612C82.1504 52.3773 82.3604 53.0073 82.7804 53.502C83.2097 53.9873 83.7791 54.23 84.4884 54.23C85.1977 54.23 85.7717 53.936 86.2104 53.348L86.9104 53.992C86.3037 54.776 85.4777 55.168 84.4324 55.168ZM91.364 55.168C90.3654 55.168 89.5534 54.832 88.928 54.16C88.3027 53.4787 87.99 52.6293 87.99 51.612C87.99 50.5947 88.3027 49.75 88.928 49.078C89.5534 48.406 90.3654 48.07 91.364 48.07C92.4094 48.07 93.2354 48.462 93.842 49.246L93.142 49.89C92.7127 49.302 92.1387 49.008 91.42 49.008C90.7107 49.008 90.1414 49.2507 89.712 49.736C89.292 50.2213 89.082 50.8467 89.082 51.612C89.082 52.3773 89.292 53.0073 89.712 53.502C90.1414 53.9873 90.7107 54.23 91.42 54.23C92.1294 54.23 92.7034 53.936 93.142 53.348L93.842 53.992C93.2354 54.776 92.4094 55.168 91.364 55.168ZM101.264 55H99.9197L97.4837 51.962L96.3637 53.068V55H95.3137V48.238H96.3637V51.836L99.9197 48.238H101.25L98.2537 51.304L101.264 55ZM107.783 55H106.733V54.23C106.164 54.8553 105.417 55.168 104.493 55.168C103.868 55.168 103.317 54.9673 102.841 54.566C102.365 54.1647 102.127 53.6187 102.127 52.928C102.127 52.2187 102.36 51.6727 102.827 51.29C103.303 50.898 103.858 50.702 104.493 50.702C105.454 50.702 106.201 51.01 106.733 51.626V50.408C106.733 49.96 106.574 49.61 106.257 49.358C105.94 49.106 105.529 48.98 105.025 48.98C104.232 48.98 103.541 49.2927 102.953 49.918L102.463 49.19C103.182 48.4433 104.082 48.07 105.165 48.07C105.94 48.07 106.57 48.2567 107.055 48.63C107.54 49.0033 107.783 49.5773 107.783 50.352V55ZM104.871 54.412C105.711 54.412 106.332 54.132 106.733 53.572V52.298C106.332 51.738 105.711 51.458 104.871 51.458C104.386 51.458 103.984 51.598 103.667 51.878C103.359 52.1487 103.205 52.5033 103.205 52.942C103.205 53.3713 103.359 53.726 103.667 54.006C103.984 54.2767 104.386 54.412 104.871 54.412ZM110.896 55H109.664L111.47 52.34C110.957 52.2747 110.537 52.06 110.21 51.696C109.893 51.332 109.734 50.87 109.734 50.31C109.734 49.7127 109.925 49.218 110.308 48.826C110.691 48.434 111.213 48.238 111.876 48.238H115.446V55H114.396V52.382H112.548L110.896 55ZM111.988 51.458H114.396V49.162H111.988C111.624 49.162 111.335 49.2693 111.12 49.484C110.915 49.6893 110.812 49.9647 110.812 50.31C110.812 50.6553 110.915 50.9353 111.12 51.15C111.325 51.3553 111.615 51.458 111.988 51.458Z" fill="white"/>
<defs>
<clipPath id="clip0_1_129">
<rect width="20" height="20" fill="white" transform="translate(0 80)"/>
</clipPath>
<clipPath id="clip1_1_129">
<rect width="20" height="16" fill="white" transform="translate(0 42)"/>
</clipPath>
</defs>
</svg>
