<svg width="302" height="100" viewBox="0 0 302 100" fill="none" xmlns="http://www.w3.org/2000/svg">
<g clip-path="url(#clip0_1_129)">
<path d="M5 80.625C5 80.4592 4.93415 80.3003 4.81694 80.1831C4.69973 80.0658 4.54076 80 4.375 80C4.20924 80 4.05027 80.0658 3.93306 80.1831C3.81585 80.3003 3.75 80.4592 3.75 80.625V81.25H2.5C1.83696 81.25 1.20107 81.5134 0.732233 81.9822C0.263392 82.4511 0 83.087 0 83.75L0 85H20V83.75C20 83.087 19.7366 82.4511 19.2678 81.9822C18.7989 81.5134 18.163 81.25 17.5 81.25H16.25V80.625C16.25 80.4592 16.1842 80.3003 16.0669 80.1831C15.9497 80.0658 15.7908 80 15.625 80C15.4592 80 15.3003 80.0658 15.1831 80.1831C15.0658 80.3003 15 80.4592 15 80.625V81.25H5V80.625ZM20 97.5V86.25H0V97.5C0 98.163 0.263392 98.7989 0.732233 99.2678C1.20107 99.7366 1.83696 100 2.5 100H17.5C18.163 100 18.7989 99.7366 19.2678 99.2678C19.7366 98.7989 20 98.163 20 97.5ZM11.875 88.75H13.125C13.2908 88.75 13.4497 88.8158 13.5669 88.9331C13.6842 89.0503 13.75 89.2092 13.75 89.375V90.625C13.75 90.7908 13.6842 90.9497 13.5669 91.0669C13.4497 91.1842 13.2908 91.25 13.125 91.25H11.875C11.7092 91.25 11.5503 91.1842 11.4331 91.0669C11.3158 90.9497 11.25 90.7908 11.25 90.625V89.375C11.25 89.2092 11.3158 89.0503 11.4331 88.9331C11.5503 88.8158 11.7092 88.75 11.875 88.75ZM15.625 88.75H16.875C17.0408 88.75 17.1997 88.8158 17.3169 88.9331C17.4342 89.0503 17.5 89.2092 17.5 89.375V90.625C17.5 90.7908 17.4342 90.9497 17.3169 91.0669C17.1997 91.1842 17.0408 91.25 16.875 91.25H15.625C15.4592 91.25 15.3003 91.1842 15.1831 91.0669C15.0658 90.9497 15 90.7908 15 90.625V89.375C15 89.2092 15.0658 89.0503 15.1831 88.9331C15.3003 88.8158 15.4592 88.75 15.625 88.75ZM2.5 93.125C2.5 92.9592 2.56585 92.8003 2.68306 92.6831C2.80027 92.5658 2.95924 92.5 3.125 92.5H4.375C4.54076 92.5 4.69973 92.5658 4.81694 92.6831C4.93415 92.8003 5 92.9592 5 93.125V94.375C5 94.5408 4.93415 94.6997 4.81694 94.8169C4.69973 94.9342 4.54076 95 4.375 95H3.125C2.95924 95 2.80027 94.9342 2.68306 94.8169C2.56585 94.6997 2.5 94.5408 2.5 94.375V93.125ZM6.875 92.5H8.125C8.29076 92.5 8.44973 92.5658 8.56694 92.6831C8.68415 92.8003 8.75 92.9592 8.75 93.125V94.375C8.75 94.5408 8.68415 94.6997 8.56694 94.8169C8.44973 94.9342 8.29076 95 8.125 95H6.875C6.70924 95 6.55027 94.9342 6.43306 94.8169C6.31585 94.6997 6.25 94.5408 6.25 94.375V93.125C6.25 92.9592 6.31585 92.8003 6.43306 92.6831C6.55027 92.5658 6.70924 92.5 6.875 92.5Z" fill="white"/>
</g>
<path d="M10 1.25C8.1773 1.25215 6.42987 1.97717 5.14102 3.26602C3.85218 4.55486 3.12716 6.3023 3.12501 8.125C3.12282 9.61452 3.60937 11.0636 4.51001 12.25C4.51001 12.25 4.69751 12.4969 4.72813 12.5325L10 18.75L15.2744 12.5294C15.3019 12.4963 15.49 12.25 15.49 12.25L15.4906 12.2481C16.3908 11.0623 16.8771 9.61383 16.875 8.125C16.8729 6.3023 16.1478 4.55486 14.859 3.26602C13.5701 1.97717 11.8227 1.25215 10 1.25ZM10 10.625C9.50555 10.625 9.02221 10.4784 8.61108 10.2037C8.19996 9.92897 7.87953 9.53852 7.69031 9.08171C7.50109 8.62489 7.45158 8.12223 7.54804 7.63727C7.64451 7.15232 7.88261 6.70686 8.23224 6.35723C8.58187 6.0076 9.02733 5.7695 9.51228 5.67304C9.99723 5.57657 10.4999 5.62608 10.9567 5.8153C11.4135 6.00452 11.804 6.32495 12.0787 6.73607C12.3534 7.1472 12.5 7.63055 12.5 8.125C12.4992 8.78779 12.2355 9.42319 11.7669 9.89185C11.2982 10.3605 10.6628 10.6242 10 10.625Z" fill="white"/>
<g clip-path="url(#clip1_1_129)">
<path d="M6.02683 45.3671C5.72703 44.3514 4.91324 44.4627 4.35683 44.9358C2.9862 46.2018 1.20154 48.8593 2.34374 52.6858C3.30031 55.9275 7.28064 58.0006 7.28064 58.0006H2.64064C2.64064 58.0006 0.244811 55.3154 0.0306387 52.1571C-0.240621 48.1641 1.35857 45.6458 3.21463 44.0041C4.95645 42.4597 6.61263 42.0006 6.61263 42.0006L10.0005 53.1006L13.3883 42.0006C13.3883 42.0006 15.0445 42.4597 16.7863 44.0041C18.6424 45.6458 20.2415 48.1641 19.9703 52.1571C19.7561 55.3154 17.3603 58.0006 17.3603 58.0006H12.7203C12.7203 58.0006 16.7003 55.9275 17.6572 52.6858C18.7994 48.8597 17.0147 46.2023 15.6441 44.9358C15.0873 44.4627 14.2735 44.3514 13.9741 45.3671C12.9461 48.6088 10.0009 57.8971 10.0009 57.8971C10.0009 57.8971 7.05564 48.6057 6.02767 45.3671H6.02683Z" fill="white"/>
</g>
<path d="M48.876 15H47.714V10.716H42.254V15H41.092V5.662H42.254V9.68H47.714V5.662H48.876V15ZM54.0688 15.168C53.0608 15.168 52.2348 14.8413 51.5908 14.188C50.9468 13.5253 50.6248 12.6667 50.6248 11.612C50.6248 10.6227 50.9421 9.78733 51.5768 9.106C52.2115 8.41533 53.0048 8.07 53.9568 8.07C54.9555 8.07 55.7441 8.41533 56.3228 9.106C56.9108 9.78733 57.2048 10.6507 57.2048 11.696V11.962H51.7308C51.7775 12.6247 52.0201 13.18 52.4588 13.628C52.8975 14.076 53.4668 14.3 54.1668 14.3C55.0068 14.3 55.7021 14.0153 56.2528 13.446L56.7568 14.132C56.0661 14.8227 55.1701 15.168 54.0688 15.168ZM56.1688 11.192C56.1595 10.6133 55.9635 10.0953 55.5808 9.638C55.1981 9.17133 54.6521 8.938 53.9428 8.938C53.2708 8.938 52.7388 9.16667 52.3468 9.624C51.9641 10.0813 51.7588 10.604 51.7308 11.192H56.1688ZM62.6995 15H58.9055V8.238H62.6295C63.2175 8.238 63.6795 8.39667 64.0155 8.714C64.3608 9.03133 64.5335 9.45133 64.5335 9.974C64.5335 10.3567 64.4261 10.688 64.2115 10.968C64.0061 11.2387 63.7495 11.4207 63.4415 11.514C63.7868 11.598 64.0761 11.7987 64.3095 12.116C64.5521 12.4333 64.6735 12.7833 64.6735 13.166C64.6735 13.7167 64.4961 14.16 64.1415 14.496C63.7961 14.832 63.3155 15 62.6995 15ZM62.4895 14.076C62.8255 14.076 63.0915 13.9827 63.2875 13.796C63.4835 13.6093 63.5815 13.3573 63.5815 13.04C63.5815 12.7507 63.4835 12.5033 63.2875 12.298C63.0915 12.0927 62.8255 11.99 62.4895 11.99H59.9555V14.076H62.4895ZM62.4475 11.066C62.7648 11.066 63.0121 10.982 63.1895 10.814C63.3668 10.6367 63.4555 10.408 63.4555 10.128C63.4555 9.82933 63.3668 9.596 63.1895 9.428C63.0121 9.25067 62.7648 9.162 62.4475 9.162H59.9555V11.066H62.4475ZM69.6394 15.168C68.6408 15.168 67.8288 14.832 67.2034 14.16C66.5781 13.4787 66.2654 12.6293 66.2654 11.612C66.2654 10.5947 66.5781 9.75 67.2034 9.078C67.8288 8.406 68.6408 8.07 69.6394 8.07C70.6848 8.07 71.5108 8.462 72.1174 9.246L71.4174 9.89C70.9881 9.302 70.4141 9.008 69.6954 9.008C68.9861 9.008 68.4168 9.25067 67.9874 9.736C67.5674 10.2213 67.3574 10.8467 67.3574 11.612C67.3574 12.3773 67.5674 13.0073 67.9874 13.502C68.4168 13.9873 68.9861 14.23 69.6954 14.23C70.4048 14.23 70.9788 13.936 71.4174 13.348L72.1174 13.992C71.5108 14.776 70.6848 15.168 69.6394 15.168ZM79.5391 15H78.1951L75.7591 11.962L74.6391 13.068V15H73.5891V8.238H74.6391V11.836L78.1951 8.238H79.5251L76.5291 11.304L79.5391 15ZM81.7885 15H80.7805V8.238H81.8305V13.404L85.3725 8.238H86.4085V15H85.3585V9.736L81.7885 15ZM89.5131 15H88.5051V8.238H89.5551V13.404L93.0971 8.238H94.1331V15H93.0831V9.736L89.5131 15ZM93.7691 6.236C93.1624 7.05733 92.3457 7.468 91.3191 7.468C90.3017 7.468 89.4804 7.05733 88.8551 6.236L89.3731 5.788C89.8584 6.46 90.5071 6.796 91.3191 6.796C92.1404 6.796 92.7844 6.46 93.2511 5.788L93.7691 6.236ZM102.443 15H101.281V7.202L99.7831 8.784L99.0831 8.07L101.421 5.662H102.443V15ZM109.581 15H108.419V12.634H103.981V11.668L107.985 5.662H109.581V11.612H110.897V12.634H109.581V15ZM108.419 11.612V6.74L105.143 11.612H108.419ZM115.624 15.168C115.008 15.168 114.462 15.028 113.986 14.748C113.519 14.4587 113.146 14.076 112.866 13.6C112.595 13.124 112.39 12.6107 112.25 12.06C112.119 11.5093 112.054 10.9353 112.054 10.338C112.054 9.74067 112.119 9.16667 112.25 8.616C112.39 8.06533 112.595 7.55667 112.866 7.09C113.146 6.614 113.519 6.236 113.986 5.956C114.462 5.66667 115.008 5.522 115.624 5.522C116.231 5.522 116.772 5.66667 117.248 5.956C117.724 6.236 118.097 6.614 118.368 7.09C118.648 7.55667 118.853 8.06533 118.984 8.616C119.124 9.16667 119.194 9.74067 119.194 10.338C119.194 10.9353 119.124 11.5093 118.984 12.06C118.853 12.6107 118.648 13.124 118.368 13.6C118.097 14.076 117.724 14.4587 117.248 14.748C116.772 15.028 116.231 15.168 115.624 15.168ZM114.224 13.558C114.597 13.9407 115.064 14.132 115.624 14.132C116.184 14.132 116.651 13.9407 117.024 13.558C117.397 13.166 117.654 12.6993 117.794 12.158C117.934 11.6167 118.004 11.01 118.004 10.338C118.004 9.666 117.934 9.05933 117.794 8.518C117.654 7.97667 117.397 7.51467 117.024 7.132C116.651 6.74933 116.184 6.558 115.624 6.558C115.064 6.558 114.597 6.74933 114.224 7.132C113.851 7.51467 113.594 7.97667 113.454 8.518C113.314 9.05933 113.244 9.666 113.244 10.338C113.244 11.01 113.314 11.6167 113.454 12.158C113.594 12.6993 113.851 13.166 114.224 13.558Z" fill="white"/>
<defs>
<clipPath id="clip0_1_129">
<rect width="20" height="20" fill="white" transform="translate(0 80)"/>
</clipPath>
<clipPath id="clip1_1_129">
<rect width="20" height="16" fill="white" transform="translate(0 42)"/>
</clipPath>
</defs>
</svg>
