<svg width="300" height="59" viewBox="0 0 300 59" fill="none" xmlns="http://www.w3.org/2000/svg">
<path d="M88.5302 39.84C85.7582 39.84 83.3222 39.196 81.2222 37.908C79.1502 36.592 77.5402 34.828 76.3922 32.616C75.2442 30.404 74.6702 27.912 74.6702 25.14C74.6702 22.368 75.2442 19.876 76.3922 17.664C77.5402 15.452 79.1502 13.702 81.2222 12.414C83.3222 11.098 85.7582 10.44 88.5302 10.44C91.3302 10.44 93.7522 11.098 95.7962 12.414C97.8682 13.702 99.4782 15.452 100.626 17.664C101.774 19.876 102.348 22.368 102.348 25.14C102.348 27.912 101.774 30.404 100.626 32.616C99.4782 34.828 97.8682 36.592 95.7962 37.908C93.7522 39.196 91.3302 39.84 88.5302 39.84ZM88.5302 37.95C90.2382 37.95 91.6802 37.46 92.8562 36.48C94.0602 35.472 94.9702 34.016 95.5862 32.112C96.2302 30.18 96.5522 27.856 96.5522 25.14C96.5522 22.396 96.2302 20.072 95.5862 18.168C94.9702 16.264 94.0602 14.822 92.8562 13.842C91.6802 12.834 90.2382 12.33 88.5302 12.33C86.8502 12.33 85.4082 12.834 84.2042 13.842C83.0282 14.822 82.1182 16.264 81.4742 18.168C80.8582 20.072 80.5502 22.396 80.5502 25.14C80.5502 27.856 80.8582 30.18 81.4742 32.112C82.1182 34.016 83.0282 35.472 84.2042 36.48C85.4082 37.46 86.8502 37.95 88.5302 37.95ZM111.353 39V21.15H110.093C108.833 21.15 107.853 21.486 107.153 22.158C106.453 22.83 106.103 23.964 106.103 25.56H104.843V22.62C104.843 21.78 105.053 21.01 105.473 20.31C105.893 19.61 106.733 19.26 107.993 19.26H123.155V21.15H116.813V39H111.353ZM132.554 39.42C130.566 39.42 128.956 39.098 127.724 38.454C126.492 37.81 125.512 37.012 124.784 36.06L126.044 35.01C126.436 35.514 127.038 36.06 127.85 36.648C128.69 37.236 129.838 37.53 131.294 37.53C132.554 37.53 133.604 37.25 134.444 36.69C135.284 36.102 135.704 35.122 135.704 33.75C135.704 32.434 135.354 31.44 134.654 30.768C133.954 30.096 132.624 29.76 130.664 29.76H128.564V27.87H130.664C132.344 27.87 133.492 27.59 134.108 27.03C134.752 26.47 135.074 25.56 135.074 24.3C135.074 23.04 134.682 22.13 133.898 21.57C133.142 21.01 132.274 20.73 131.294 20.73C130.034 20.73 128.97 21.164 128.102 22.032C127.234 22.872 126.758 23.978 126.674 25.35H125.414C125.414 24.174 125.456 23.18 125.54 22.368C125.624 21.528 125.932 20.842 126.464 20.31C126.996 19.778 127.794 19.4 128.858 19.176C129.922 18.952 131.084 18.84 132.344 18.84C134.024 18.84 135.494 19.036 136.754 19.428C138.014 19.82 138.994 20.422 139.694 21.234C140.394 22.018 140.744 23.04 140.744 24.3C140.744 25.56 140.282 26.596 139.358 27.408C138.434 28.192 137.216 28.696 135.704 28.92C137.44 29.144 138.812 29.69 139.82 30.558C140.856 31.426 141.374 32.49 141.374 33.75C141.374 35.094 141.01 36.186 140.282 37.026C139.554 37.866 138.532 38.482 137.216 38.874C135.9 39.238 134.346 39.42 132.554 39.42ZM146.161 39V24.72C146.161 23.46 145.979 22.452 145.615 21.696C145.279 20.912 144.481 20.52 143.221 20.52H142.801V19.26H147.841C148.821 19.26 149.577 19.428 150.109 19.764C150.669 20.1 151.061 20.66 151.285 21.444C151.509 22.228 151.621 23.32 151.621 24.72V27.24H154.351C156.115 27.24 157.641 27.464 158.929 27.912C160.217 28.36 161.211 29.018 161.911 29.886C162.611 30.754 162.961 31.832 162.961 33.12C162.961 34.38 162.611 35.458 161.911 36.354C161.211 37.222 160.217 37.88 158.929 38.328C157.641 38.776 156.115 39 154.351 39H146.161ZM153.511 37.32C154.463 37.32 155.331 37.026 156.115 36.438C156.899 35.822 157.291 34.716 157.291 33.12C157.291 31.524 156.899 30.432 156.115 29.844C155.331 29.228 154.463 28.92 153.511 28.92C153.287 28.92 152.993 28.948 152.629 29.004C152.265 29.032 151.929 29.102 151.621 29.214V37.026C151.929 37.138 152.265 37.222 152.629 37.278C152.993 37.306 153.287 37.32 153.511 37.32ZM168.841 39C167.861 39 167.091 38.846 166.531 38.538C165.999 38.202 165.621 37.642 165.397 36.858C165.173 36.046 165.061 34.94 165.061 33.54V19.26H170.521V33.54C170.521 34.8 170.689 35.822 171.025 36.606C171.389 37.362 172.201 37.74 173.461 37.74H173.881V39H168.841ZM176.959 39V24.72C176.959 23.46 176.777 22.452 176.413 21.696C176.077 20.912 175.279 20.52 174.019 20.52H173.809V19.26H185.065C186.745 19.26 188.215 19.456 189.475 19.848C190.763 20.212 191.757 20.772 192.457 21.528C193.185 22.256 193.549 23.18 193.549 24.3C193.549 25.56 193.073 26.554 192.121 27.282C191.197 28.01 189.895 28.486 188.215 28.71C190.007 28.934 191.477 29.452 192.625 30.264C193.801 31.076 194.389 32.168 194.389 33.54C194.389 34.8 194.025 35.836 193.297 36.648C192.569 37.46 191.505 38.062 190.105 38.454C188.733 38.818 187.053 39 185.065 39H176.959ZM184.309 37.32C185.569 37.32 186.619 37.012 187.459 36.396C188.299 35.752 188.719 34.8 188.719 33.54C188.719 32.196 188.285 31.202 187.417 30.558C186.549 29.886 185.373 29.55 183.889 29.55H182.419V37.026C182.727 37.138 183.063 37.222 183.427 37.278C183.791 37.306 184.085 37.32 184.309 37.32ZM182.419 27.66H183.889C184.953 27.66 185.877 27.366 186.661 26.778C187.473 26.19 187.879 25.364 187.879 24.3C187.879 23.124 187.487 22.27 186.703 21.738C185.947 21.206 185.149 20.94 184.309 20.94C184.085 20.94 183.791 20.968 183.427 21.024C183.063 21.052 182.727 21.122 182.419 21.234V27.66ZM199.194 39V24.72C199.194 23.46 199.012 22.452 198.648 21.696C198.312 20.912 197.514 20.52 196.254 20.52H195.834V19.26H200.874C201.854 19.26 202.61 19.428 203.142 19.764C203.702 20.1 204.094 20.66 204.318 21.444C204.542 22.228 204.654 23.32 204.654 24.72V27.24H207.384C209.148 27.24 210.674 27.464 211.962 27.912C213.25 28.36 214.244 29.018 214.944 29.886C215.644 30.754 215.994 31.832 215.994 33.12C215.994 34.38 215.644 35.458 214.944 36.354C214.244 37.222 213.25 37.88 211.962 38.328C210.674 38.776 209.148 39 207.384 39H199.194ZM206.544 37.32C207.496 37.32 208.364 37.026 209.148 36.438C209.932 35.822 210.324 34.716 210.324 33.12C210.324 31.524 209.932 30.432 209.148 29.844C208.364 29.228 207.496 28.92 206.544 28.92C206.32 28.92 206.026 28.948 205.662 29.004C205.298 29.032 204.962 29.102 204.654 29.214V37.026C204.962 37.138 205.298 37.222 205.662 37.278C206.026 37.306 206.32 37.32 206.544 37.32ZM221.874 39C220.894 39 220.124 38.846 219.564 38.538C219.032 38.202 218.654 37.642 218.43 36.858C218.206 36.046 218.094 34.94 218.094 33.54V19.26H223.554V33.54C223.554 34.8 223.722 35.822 224.058 36.606C224.422 37.362 225.234 37.74 226.494 37.74H226.914V39H221.874Z" fill="white"/>
<path d="M0 22H14C21.732 22 28 28.268 28 36H14C6.26801 36 0 29.732 0 22Z" fill="#018ABE"/>
<path d="M300 22H286C278.268 22 272 28.268 272 36H286C293.732 36 300 29.732 300 22Z" fill="#018ABE"/>
</svg>
