<svg width="482" height="59" viewBox="0 0 482 59" fill="none" xmlns="http://www.w3.org/2000/svg">
<path d="M88.455 39.84C85.515 39.84 83.009 39.21 80.937 37.95C78.865 36.69 77.283 34.982 76.191 32.826C75.127 30.67 74.595 28.248 74.595 25.56C74.595 23.432 74.931 21.458 75.603 19.638C76.303 17.79 77.283 16.18 78.543 14.808C79.803 13.436 81.273 12.372 82.953 11.616C84.633 10.832 86.467 10.44 88.455 10.44C91.087 10.44 93.201 10.79 94.797 11.49C96.421 12.162 97.625 12.946 98.409 13.842C98.969 14.57 99.291 15.508 99.375 16.656C99.459 17.804 99.501 18.994 99.501 20.226H98.241C97.709 17.678 96.729 15.732 95.301 14.388C93.901 13.016 92.039 12.33 89.715 12.33C88.007 12.33 86.453 12.722 85.053 13.506C83.653 14.29 82.533 15.648 81.693 17.58C80.881 19.484 80.475 22.144 80.475 25.56C80.475 27.156 80.643 28.696 80.979 30.18C81.315 31.664 81.847 32.994 82.575 34.17C83.331 35.346 84.283 36.27 85.431 36.942C86.607 37.614 88.035 37.95 89.715 37.95C91.647 37.95 93.439 37.446 95.091 36.438C96.743 35.402 98.073 33.904 99.081 31.944L100.551 33.078C99.235 35.402 97.625 37.11 95.721 38.202C93.817 39.294 91.395 39.84 88.455 39.84ZM112.761 39.42C110.801 39.42 109.093 38.972 107.637 38.076C106.181 37.18 105.061 35.962 104.277 34.422C103.493 32.854 103.101 31.09 103.101 29.13C103.101 26.89 103.507 25.014 104.319 23.502C105.131 21.962 106.237 20.8 107.637 20.016C109.037 19.232 110.605 18.84 112.341 18.84C114.077 18.84 115.645 19.19 117.045 19.89C118.445 20.59 119.551 21.57 120.363 22.83C121.175 24.09 121.581 25.56 121.581 27.24L121.413 29.886H108.771C108.771 32.658 109.191 34.632 110.031 35.808C110.899 36.956 112.019 37.53 113.391 37.53C114.847 37.53 116.023 37.194 116.919 36.522C117.843 35.85 118.669 35.024 119.397 34.044L120.699 35.01C120.307 35.626 119.775 36.284 119.103 36.984C118.459 37.656 117.619 38.23 116.583 38.706C115.575 39.182 114.301 39.42 112.761 39.42ZM108.771 27.996H115.911C115.911 25.224 115.575 23.32 114.903 22.284C114.259 21.248 113.405 20.73 112.341 20.73C111.725 20.73 111.137 20.954 110.577 21.402C110.045 21.85 109.611 22.606 109.275 23.67C108.939 24.706 108.771 26.148 108.771 27.996ZM131.274 39.42C130.098 39.42 129.062 39.28 128.166 39C127.298 38.72 126.556 38.342 125.94 37.866C125.352 37.362 124.904 36.76 124.596 36.06C124.288 35.36 124.134 34.59 124.134 33.75C124.134 32.406 124.442 31.272 125.058 30.348C125.702 29.396 126.85 28.682 128.502 28.206C130.154 27.702 132.478 27.45 135.474 27.45H136.104C136.104 25.77 135.95 24.44 135.642 23.46C135.334 22.48 134.872 21.78 134.256 21.36C133.668 20.94 132.954 20.73 132.114 20.73C131.162 20.73 130.308 20.968 129.552 21.444C128.796 21.92 128.25 22.942 127.914 24.51H125.604C125.604 23.782 125.646 23.04 125.73 22.284C125.842 21.528 126.15 20.87 126.654 20.31C127.158 19.75 127.984 19.372 129.132 19.176C130.308 18.952 131.582 18.84 132.954 18.84C134.326 18.84 135.544 19.022 136.608 19.386C137.672 19.75 138.568 20.296 139.296 21.024C140.052 21.752 140.612 22.676 140.976 23.796C141.368 24.888 141.564 26.176 141.564 27.66V39H137.994L136.524 37.11H136.314C135.95 37.698 135.334 38.23 134.466 38.706C133.598 39.182 132.534 39.42 131.274 39.42ZM132.534 37.32C133.458 37.32 134.228 37.012 134.844 36.396C135.46 35.78 135.88 35.178 136.104 34.59V29.34H135.474C133.458 29.34 132.002 29.704 131.106 30.432C130.238 31.16 129.804 32.266 129.804 33.75C129.804 34.926 130.042 35.822 130.518 36.438C131.022 37.026 131.694 37.32 132.534 37.32ZM147.07 39V24.72C147.07 23.46 146.888 22.452 146.524 21.696C146.188 20.912 145.39 20.52 144.13 20.52H143.71V19.26H148.75C149.73 19.26 150.486 19.428 151.018 19.764C151.578 20.1 151.97 20.66 152.194 21.444C152.418 22.228 152.53 23.32 152.53 24.72V28.08H159.25V19.26H164.71V33.54C164.71 34.8 164.878 35.822 165.214 36.606C165.578 37.362 166.39 37.74 167.65 37.74H168.07V39H163.03C162.05 39 161.28 38.846 160.72 38.538C160.188 38.202 159.81 37.642 159.586 36.858C159.362 36.046 159.25 34.94 159.25 33.54V29.97H152.53V39H147.07ZM179.625 39.42C177.385 39.42 175.509 38.958 173.997 38.034C172.513 37.082 171.393 35.822 170.637 34.254C169.909 32.686 169.545 30.978 169.545 29.13C169.545 27.254 169.909 25.546 170.637 24.006C171.393 22.438 172.513 21.192 173.997 20.268C175.509 19.316 177.385 18.84 179.625 18.84C181.221 18.84 182.565 18.952 183.657 19.176C184.777 19.4 185.603 19.778 186.135 20.31C186.667 20.842 186.975 21.556 187.059 22.452C187.143 23.348 187.185 24.594 187.185 26.19H185.925C185.813 24.398 185.253 23.04 184.245 22.116C183.265 21.192 181.935 20.73 180.255 20.73C179.247 20.73 178.365 21.038 177.609 21.654C176.853 22.242 176.265 23.166 175.845 24.426C175.425 25.658 175.215 27.226 175.215 29.13C175.215 30.978 175.411 32.532 175.803 33.792C176.195 35.024 176.769 35.962 177.525 36.606C178.309 37.222 179.289 37.53 180.465 37.53C181.921 37.53 183.097 37.194 183.993 36.522C184.917 35.85 185.743 35.024 186.471 34.044L187.773 35.01C187.381 35.626 186.849 36.284 186.177 36.984C185.533 37.656 184.679 38.23 183.615 38.706C182.579 39.182 181.249 39.42 179.625 39.42ZM192.187 39V24.72C192.187 23.46 192.005 22.452 191.641 21.696C191.305 20.912 190.507 20.52 189.247 20.52H188.827V19.26H193.867C194.847 19.26 195.603 19.428 196.135 19.764C196.695 20.1 197.087 20.66 197.311 21.444C197.535 22.228 197.647 23.32 197.647 24.72V27.24H200.377C202.141 27.24 203.667 27.464 204.955 27.912C206.243 28.36 207.237 29.018 207.937 29.886C208.637 30.754 208.987 31.832 208.987 33.12C208.987 34.38 208.637 35.458 207.937 36.354C207.237 37.222 206.243 37.88 204.955 38.328C203.667 38.776 202.141 39 200.377 39H192.187ZM199.537 37.32C200.489 37.32 201.357 37.026 202.141 36.438C202.925 35.822 203.317 34.716 203.317 33.12C203.317 31.524 202.925 30.432 202.141 29.844C201.357 29.228 200.489 28.92 199.537 28.92C199.313 28.92 199.019 28.948 198.655 29.004C198.291 29.032 197.955 29.102 197.647 29.214V37.026C197.955 37.138 198.291 37.222 198.655 37.278C199.019 37.306 199.313 37.32 199.537 37.32ZM214.867 39C213.887 39 213.117 38.846 212.557 38.538C212.025 38.202 211.647 37.642 211.423 36.858C211.199 36.046 211.087 34.94 211.087 33.54V19.26H216.547V33.54C216.547 34.8 216.715 35.822 217.051 36.606C217.415 37.362 218.227 37.74 219.487 37.74H219.907V39H214.867ZM253.855 39.42C252.875 39.42 251.937 39.224 251.041 38.832C250.145 38.44 249.263 37.81 248.395 36.942C247.555 36.046 246.673 34.842 245.749 33.33L241.549 26.316H239.869V39H234.367V16.74C234.367 15.48 234.185 14.472 233.821 13.716C233.485 12.932 232.687 12.54 231.427 12.54H231.007V11.28H242.599C243.355 11.28 244.223 11.336 245.203 11.448C246.211 11.532 247.219 11.728 248.227 12.036C249.235 12.316 250.173 12.736 251.041 13.296C251.909 13.856 252.609 14.598 253.141 15.522C253.673 16.418 253.939 17.538 253.939 18.882C253.939 20.366 253.603 21.584 252.931 22.536C252.287 23.46 251.447 24.188 250.411 24.72C249.375 25.252 248.283 25.672 247.135 25.98L251.545 33.33C252.609 35.122 253.589 36.312 254.485 36.9C255.381 37.488 256.137 37.838 256.753 37.95V39C256.529 39.112 256.123 39.21 255.535 39.294C254.975 39.378 254.415 39.42 253.855 39.42ZM239.869 24.636H242.389C243.061 24.636 243.733 24.538 244.405 24.342C245.077 24.146 245.679 23.824 246.211 23.376C246.771 22.928 247.219 22.326 247.555 21.57C247.891 20.814 248.059 19.89 248.059 18.798C248.059 17.706 247.891 16.796 247.555 16.068C247.247 15.312 246.813 14.71 246.253 14.262C245.721 13.786 245.119 13.45 244.447 13.254C243.803 13.058 243.145 12.96 242.473 12.96C242.249 12.96 241.913 12.974 241.465 13.002C241.045 13.03 240.513 13.114 239.869 13.254V24.636ZM259.576 39V24.72C259.576 23.46 259.394 22.452 259.03 21.696C258.694 20.912 257.896 20.52 256.636 20.52H256.216V19.26H261.256C262.236 19.26 262.992 19.428 263.524 19.764C264.084 20.1 264.476 20.66 264.7 21.444C264.924 22.228 265.036 23.32 265.036 24.72V39H259.576ZM262.306 16.992C261.242 16.992 260.444 16.67 259.912 16.026C259.408 15.382 259.156 14.64 259.156 13.8C259.156 13.072 259.38 12.498 259.828 12.078C260.276 11.658 260.822 11.448 261.466 11.448C262.53 11.448 263.314 11.77 263.818 12.414C264.35 13.058 264.616 13.8 264.616 14.64C264.616 15.368 264.392 15.942 263.944 16.362C263.496 16.782 262.95 16.992 262.306 16.992ZM276.947 39.42C275.043 39.42 273.545 38.902 272.453 37.866C271.389 36.83 270.857 35.304 270.857 33.288V21.15H268.337V19.26H270.857V15.48L272.957 12.96H276.317V19.26H280.937V21.15H276.317V33.54C276.317 35.108 276.499 36.172 276.863 36.732C277.255 37.264 277.801 37.53 278.501 37.53C279.229 37.53 279.873 37.404 280.433 37.152C280.993 36.9 281.455 36.648 281.819 36.396L282.407 37.572C281.847 38.076 281.119 38.51 280.223 38.874C279.327 39.238 278.235 39.42 276.947 39.42ZM285.663 39V24.72C285.663 23.46 285.495 22.452 285.159 21.696C284.823 20.912 284.025 20.52 282.765 20.52H282.345V19.26H286.503C287.343 19.26 288.071 19.386 288.687 19.638C289.303 19.862 289.765 20.268 290.073 20.856H290.241C290.745 20.408 291.431 19.96 292.299 19.512C293.195 19.064 294.273 18.84 295.533 18.84C296.597 18.84 297.521 18.994 298.305 19.302C299.089 19.582 299.733 19.918 300.237 20.31C300.769 20.674 301.133 20.982 301.329 21.234C301.889 20.618 302.617 20.072 303.513 19.596C304.409 19.092 305.669 18.84 307.293 18.84C308.861 18.84 310.191 19.106 311.283 19.638C312.375 20.17 313.201 21.01 313.761 22.158C314.349 23.278 314.643 24.748 314.643 26.568V39H309.183V26.526C309.183 24.482 308.861 23.04 308.217 22.2C307.573 21.36 306.775 20.94 305.823 20.94C305.039 20.94 304.325 21.094 303.681 21.402C303.065 21.71 302.575 22.088 302.211 22.536C302.435 22.956 302.603 23.53 302.715 24.258C302.827 24.958 302.883 25.728 302.883 26.568V39H297.423V26.526C297.423 24.482 297.101 23.04 296.457 22.2C295.813 21.36 295.015 20.94 294.063 20.94C293.531 20.94 292.985 21.094 292.425 21.402C291.893 21.682 291.459 21.976 291.123 22.284V39H285.663ZM328.468 39.714C327.32 39.714 326.186 39.602 325.066 39.378C323.946 39.154 322.924 38.832 322 38.412C321.076 37.964 320.334 37.432 319.774 36.816C319.242 36.172 318.976 35.458 318.976 34.674V29.76H320.152C320.6 32.672 321.496 34.744 322.84 35.976C324.212 37.208 326.074 37.824 328.426 37.824C329.49 37.824 330.414 37.67 331.198 37.362C332.01 37.054 332.626 36.606 333.046 36.018C333.494 35.402 333.718 34.646 333.718 33.75C333.718 32.546 333.326 31.552 332.542 30.768C331.786 29.956 330.736 29.144 329.392 28.332L324.226 25.224C322.322 24.104 320.978 22.956 320.194 21.78C319.41 20.604 319.018 19.246 319.018 17.706C319.018 15.494 319.858 13.744 321.538 12.456C323.246 11.168 325.542 10.524 328.426 10.524C329.574 10.524 330.708 10.636 331.828 10.86C332.948 11.084 333.97 11.42 334.894 11.868C335.818 12.288 336.546 12.806 337.078 13.422C337.638 14.038 337.918 14.752 337.918 15.564V20.478H336.742C336.266 17.566 335.37 15.494 334.054 14.262C332.738 13.03 331.016 12.414 328.888 12.414C327.88 12.414 326.998 12.582 326.242 12.918C325.514 13.254 324.954 13.73 324.562 14.346C324.17 14.934 323.974 15.648 323.974 16.488C323.974 17.664 324.366 18.616 325.15 19.344C325.962 20.072 327.026 20.828 328.342 21.612L333.508 24.678C335.412 25.798 336.798 26.904 337.666 27.996C338.562 29.06 339.01 30.362 339.01 31.902C339.01 34.31 338.1 36.214 336.28 37.614C334.46 39.014 331.856 39.714 328.468 39.714ZM350.037 39.42C348.133 39.42 346.635 38.902 345.543 37.866C344.479 36.83 343.947 35.304 343.947 33.288V21.15H341.427V19.26H343.947V15.48L346.047 12.96H349.407V19.26H354.027V21.15H349.407V33.54C349.407 35.108 349.589 36.172 349.953 36.732C350.345 37.264 350.891 37.53 351.591 37.53C352.319 37.53 352.963 37.404 353.523 37.152C354.083 36.9 354.545 36.648 354.909 36.396L355.497 37.572C354.937 38.076 354.209 38.51 353.313 38.874C352.417 39.238 351.325 39.42 350.037 39.42ZM359.257 47.4V45.93C360.713 45.93 361.931 45.65 362.911 45.09C363.891 44.53 364.689 43.452 365.305 41.856L366.187 39.588L358.627 23.04C358.179 22.004 357.619 21.22 356.947 20.688C356.303 20.128 355.561 19.792 354.721 19.68V18.84H358.417C359.677 18.84 360.783 19.148 361.735 19.764C362.687 20.352 363.401 21.164 363.877 22.2L368.707 32.784L373.831 19.26H376.057L367.573 41.73C367.013 43.242 366.397 44.404 365.725 45.216C365.081 46.056 364.367 46.63 363.583 46.938C362.799 47.246 361.917 47.4 360.937 47.4H359.257ZM379.45 39V16.74C379.45 15.48 379.268 14.472 378.904 13.716C378.568 12.932 377.77 12.54 376.51 12.54H376.09V11.28H381.13C382.11 11.28 382.866 11.448 383.398 11.784C383.958 12.12 384.35 12.68 384.574 13.464C384.798 14.248 384.91 15.34 384.91 16.74V39H379.45ZM398.804 39.42C396.844 39.42 395.136 38.972 393.68 38.076C392.224 37.18 391.104 35.962 390.32 34.422C389.536 32.854 389.144 31.09 389.144 29.13C389.144 26.89 389.55 25.014 390.362 23.502C391.174 21.962 392.28 20.8 393.68 20.016C395.08 19.232 396.648 18.84 398.384 18.84C400.12 18.84 401.688 19.19 403.088 19.89C404.488 20.59 405.594 21.57 406.406 22.83C407.218 24.09 407.624 25.56 407.624 27.24L407.456 29.886H394.814C394.814 32.658 395.234 34.632 396.074 35.808C396.942 36.956 398.062 37.53 399.434 37.53C400.89 37.53 402.066 37.194 402.962 36.522C403.886 35.85 404.712 35.024 405.44 34.044L406.742 35.01C406.35 35.626 405.818 36.284 405.146 36.984C404.502 37.656 403.662 38.23 402.626 38.706C401.618 39.182 400.344 39.42 398.804 39.42ZM394.814 27.996H401.954C401.954 25.224 401.618 23.32 400.946 22.284C400.302 21.248 399.448 20.73 398.384 20.73C397.768 20.73 397.18 20.954 396.62 21.402C396.088 21.85 395.654 22.606 395.318 23.67C394.982 24.706 394.814 26.148 394.814 27.996Z" fill="white"/>
<path d="M0 22H14C21.732 22 28 28.268 28 36H14C6.26801 36 0 29.732 0 22Z" fill="#018ABE"/>
<path d="M482 22H468C460.268 22 454 28.268 454 36H468C475.732 36 482 29.732 482 22Z" fill="#018ABE"/>
</svg>
