<svg width="518" height="59" viewBox="0 0 518 59" fill="none" xmlns="http://www.w3.org/2000/svg">
<path d="M88.7978 39.84C85.8578 39.84 83.3518 39.21 81.2798 37.95C79.2078 36.69 77.6258 34.982 76.5338 32.826C75.4698 30.67 74.9378 28.248 74.9378 25.56C74.9378 23.432 75.2738 21.458 75.9458 19.638C76.6458 17.79 77.6258 16.18 78.8858 14.808C80.1458 13.436 81.6158 12.372 83.2958 11.616C84.9758 10.832 86.8098 10.44 88.7978 10.44C91.4298 10.44 93.5438 10.79 95.1398 11.49C96.7638 12.162 97.9678 12.946 98.7518 13.842C99.3118 14.57 99.6338 15.508 99.7178 16.656C99.8018 17.804 99.8438 18.994 99.8438 20.226H98.5838C98.0518 17.678 97.0718 15.732 95.6438 14.388C94.2438 13.016 92.3818 12.33 90.0578 12.33C88.3498 12.33 86.7958 12.722 85.3958 13.506C83.9958 14.29 82.8758 15.648 82.0358 17.58C81.2238 19.484 80.8178 22.144 80.8178 25.56C80.8178 27.156 80.9858 28.696 81.3218 30.18C81.6578 31.664 82.1898 32.994 82.9178 34.17C83.6738 35.346 84.6258 36.27 85.7738 36.942C86.9498 37.614 88.3778 37.95 90.0578 37.95C91.9898 37.95 93.7818 37.446 95.4338 36.438C97.0858 35.402 98.4158 33.904 99.4238 31.944L100.894 33.078C99.5778 35.402 97.9678 37.11 96.0638 38.202C94.1598 39.294 91.7378 39.84 88.7978 39.84ZM109.119 39V21.15H107.859C106.599 21.15 105.619 21.486 104.919 22.158C104.219 22.83 103.869 23.964 103.869 25.56H102.609V22.62C102.609 21.78 102.819 21.01 103.239 20.31C103.659 19.61 104.499 19.26 105.759 19.26H120.921V21.15H114.579V39H109.119ZM132.308 39.42C130.236 39.42 128.444 38.972 126.932 38.076C125.42 37.152 124.258 35.906 123.446 34.338C122.634 32.77 122.228 31.034 122.228 29.13C122.228 27.198 122.634 25.462 123.446 23.922C124.258 22.354 125.42 21.122 126.932 20.226C128.444 19.302 130.236 18.84 132.308 18.84C134.408 18.84 136.2 19.302 137.684 20.226C139.196 21.122 140.358 22.354 141.17 23.922C141.982 25.462 142.388 27.198 142.388 29.13C142.388 31.034 141.982 32.77 141.17 34.338C140.358 35.906 139.196 37.152 137.684 38.076C136.2 38.972 134.408 39.42 132.308 39.42ZM132.308 37.53C133.288 37.53 134.1 37.166 134.744 36.438C135.416 35.71 135.906 34.716 136.214 33.456C136.55 32.168 136.718 30.726 136.718 29.13C136.718 27.506 136.55 26.064 136.214 24.804C135.906 23.544 135.416 22.55 134.744 21.822C134.1 21.094 133.288 20.73 132.308 20.73C131.328 20.73 130.502 21.094 129.83 21.822C129.186 22.55 128.696 23.544 128.36 24.804C128.052 26.064 127.898 27.506 127.898 29.13C127.898 30.726 128.052 32.168 128.36 33.456C128.696 34.716 129.186 35.71 129.83 36.438C130.502 37.166 131.328 37.53 132.308 37.53ZM147.208 39V24.72C147.208 23.46 147.026 22.452 146.662 21.696C146.326 20.912 145.528 20.52 144.268 20.52H143.848V19.26H148.888C149.868 19.26 150.624 19.428 151.156 19.764C151.716 20.1 152.108 20.66 152.332 21.444C152.556 22.228 152.668 23.32 152.668 24.72V33.75L160.228 19.26H165.268V39H159.808V24.51L152.248 39H147.208ZM195.69 40.05C192.638 40.05 190.454 39.378 189.138 38.034C187.822 36.662 187.164 34.604 187.164 31.86V24.552L181.116 39H179.73L172.422 24.132V38.958H170.322V19.26H175.446L181.662 31.902L187.122 18.84H192.624V31.86C192.624 33.4 192.722 34.674 192.918 35.682C193.114 36.69 193.436 37.46 193.884 37.992C194.332 38.524 194.934 38.86 195.69 39V40.05ZM207.366 39.42C205.294 39.42 203.502 38.972 201.99 38.076C200.478 37.152 199.316 35.906 198.504 34.338C197.692 32.77 197.286 31.034 197.286 29.13C197.286 27.198 197.692 25.462 198.504 23.922C199.316 22.354 200.478 21.122 201.99 20.226C203.502 19.302 205.294 18.84 207.366 18.84C209.466 18.84 211.258 19.302 212.742 20.226C214.254 21.122 215.416 22.354 216.228 23.922C217.04 25.462 217.446 27.198 217.446 29.13C217.446 31.034 217.04 32.77 216.228 34.338C215.416 35.906 214.254 37.152 212.742 38.076C211.258 38.972 209.466 39.42 207.366 39.42ZM207.366 37.53C208.346 37.53 209.158 37.166 209.802 36.438C210.474 35.71 210.964 34.716 211.272 33.456C211.608 32.168 211.776 30.726 211.776 29.13C211.776 27.506 211.608 26.064 211.272 24.804C210.964 23.544 210.474 22.55 209.802 21.822C209.158 21.094 208.346 20.73 207.366 20.73C206.386 20.73 205.56 21.094 204.888 21.822C204.244 22.55 203.754 23.544 203.418 24.804C203.11 26.064 202.956 27.506 202.956 29.13C202.956 30.726 203.11 32.168 203.418 33.456C203.754 34.716 204.244 35.71 204.888 36.438C205.56 37.166 206.386 37.53 207.366 37.53ZM230.54 39.42C228.3 39.42 226.424 38.958 224.912 38.034C223.428 37.082 222.308 35.822 221.552 34.254C220.824 32.686 220.46 30.978 220.46 29.13C220.46 27.254 220.824 25.546 221.552 24.006C222.308 22.438 223.428 21.192 224.912 20.268C226.424 19.316 228.3 18.84 230.54 18.84C232.136 18.84 233.48 18.952 234.572 19.176C235.692 19.4 236.518 19.778 237.05 20.31C237.582 20.842 237.89 21.556 237.974 22.452C238.058 23.348 238.1 24.594 238.1 26.19H236.84C236.728 24.398 236.168 23.04 235.16 22.116C234.18 21.192 232.85 20.73 231.17 20.73C230.162 20.73 229.28 21.038 228.524 21.654C227.768 22.242 227.18 23.166 226.76 24.426C226.34 25.658 226.13 27.226 226.13 29.13C226.13 30.978 226.326 32.532 226.718 33.792C227.11 35.024 227.684 35.962 228.44 36.606C229.224 37.222 230.204 37.53 231.38 37.53C232.836 37.53 234.012 37.194 234.908 36.522C235.832 35.85 236.658 35.024 237.386 34.044L238.688 35.01C238.296 35.626 237.764 36.284 237.092 36.984C236.448 37.656 235.594 38.23 234.53 38.706C233.494 39.182 232.164 39.42 230.54 39.42ZM247.218 39V21.15H245.958C244.698 21.15 243.718 21.486 243.018 22.158C242.318 22.83 241.968 23.964 241.968 25.56H240.708V22.62C240.708 21.78 240.918 21.01 241.338 20.31C241.758 19.61 242.598 19.26 243.858 19.26H259.02V21.15H252.678V39H247.218ZM262.708 39V24.72C262.708 23.46 262.526 22.452 262.162 21.696C261.826 20.912 261.028 20.52 259.768 20.52H259.348V19.26H264.388C265.368 19.26 266.124 19.428 266.656 19.764C267.216 20.1 267.608 20.66 267.832 21.444C268.056 22.228 268.168 23.32 268.168 24.72V27.24H271.318C273.082 27.24 274.608 27.464 275.896 27.912C277.184 28.36 278.178 29.018 278.878 29.886C279.578 30.754 279.928 31.832 279.928 33.12C279.928 34.38 279.578 35.458 278.878 36.354C278.178 37.222 277.184 37.88 275.896 38.328C274.608 38.776 273.082 39 271.318 39H262.708ZM270.058 37.32C271.206 37.32 272.186 37.026 272.998 36.438C273.838 35.822 274.258 34.716 274.258 33.12C274.258 31.524 273.838 30.432 272.998 29.844C272.186 29.228 271.206 28.92 270.058 28.92C269.834 28.92 269.54 28.948 269.176 29.004C268.812 29.032 268.476 29.102 268.168 29.214V37.026C268.476 37.138 268.812 37.222 269.176 37.278C269.54 37.306 269.834 37.32 270.058 37.32ZM302.851 39.42C300.611 39.42 298.735 38.958 297.223 38.034C295.739 37.082 294.619 35.822 293.863 34.254C293.135 32.686 292.771 30.978 292.771 29.13C292.771 27.254 293.135 25.546 293.863 24.006C294.619 22.438 295.739 21.192 297.223 20.268C298.735 19.316 300.611 18.84 302.851 18.84C304.447 18.84 305.791 18.952 306.883 19.176C308.003 19.4 308.829 19.778 309.361 20.31C309.893 20.842 310.201 21.556 310.285 22.452C310.369 23.348 310.411 24.594 310.411 26.19H309.151C309.039 24.398 308.479 23.04 307.471 22.116C306.491 21.192 305.161 20.73 303.481 20.73C302.473 20.73 301.591 21.038 300.835 21.654C300.079 22.242 299.491 23.166 299.071 24.426C298.651 25.658 298.441 27.226 298.441 29.13C298.441 30.978 298.637 32.532 299.029 33.792C299.421 35.024 299.995 35.962 300.751 36.606C301.535 37.222 302.515 37.53 303.691 37.53C305.147 37.53 306.323 37.194 307.219 36.522C308.143 35.85 308.969 35.024 309.697 34.044L310.999 35.01C310.607 35.626 310.075 36.284 309.403 36.984C308.759 37.656 307.905 38.23 306.841 38.706C305.805 39.182 304.475 39.42 302.851 39.42ZM323.309 39.42C321.349 39.42 319.641 38.972 318.185 38.076C316.729 37.18 315.609 35.962 314.825 34.422C314.041 32.854 313.649 31.09 313.649 29.13C313.649 26.89 314.055 25.014 314.867 23.502C315.679 21.962 316.785 20.8 318.185 20.016C319.585 19.232 321.153 18.84 322.889 18.84C324.625 18.84 326.193 19.19 327.593 19.89C328.993 20.59 330.099 21.57 330.911 22.83C331.723 24.09 332.129 25.56 332.129 27.24L331.961 29.886H319.319C319.319 32.658 319.739 34.632 320.579 35.808C321.447 36.956 322.567 37.53 323.939 37.53C325.395 37.53 326.571 37.194 327.467 36.522C328.391 35.85 329.217 35.024 329.945 34.044L331.247 35.01C330.855 35.626 330.323 36.284 329.651 36.984C329.007 37.656 328.167 38.23 327.131 38.706C326.123 39.182 324.849 39.42 323.309 39.42ZM319.319 27.996H326.459C326.459 25.224 326.123 23.32 325.451 22.284C324.807 21.248 323.953 20.73 322.889 20.73C322.273 20.73 321.685 20.954 321.125 21.402C320.593 21.85 320.159 22.606 319.823 23.67C319.487 24.706 319.319 26.148 319.319 27.996ZM341.822 39.42C340.646 39.42 339.61 39.28 338.714 39C337.846 38.72 337.104 38.342 336.488 37.866C335.9 37.362 335.452 36.76 335.144 36.06C334.836 35.36 334.682 34.59 334.682 33.75C334.682 32.406 334.99 31.272 335.606 30.348C336.25 29.396 337.398 28.682 339.05 28.206C340.702 27.702 343.026 27.45 346.022 27.45H346.652C346.652 25.77 346.498 24.44 346.19 23.46C345.882 22.48 345.42 21.78 344.804 21.36C344.216 20.94 343.502 20.73 342.662 20.73C341.71 20.73 340.856 20.968 340.1 21.444C339.344 21.92 338.798 22.942 338.462 24.51H336.152C336.152 23.782 336.194 23.04 336.278 22.284C336.39 21.528 336.698 20.87 337.202 20.31C337.706 19.75 338.532 19.372 339.68 19.176C340.856 18.952 342.13 18.84 343.502 18.84C344.874 18.84 346.092 19.022 347.156 19.386C348.22 19.75 349.116 20.296 349.844 21.024C350.6 21.752 351.16 22.676 351.524 23.796C351.916 24.888 352.112 26.176 352.112 27.66V39H348.542L347.072 37.11H346.862C346.498 37.698 345.882 38.23 345.014 38.706C344.146 39.182 343.082 39.42 341.822 39.42ZM343.082 37.32C344.006 37.32 344.776 37.012 345.392 36.396C346.008 35.78 346.428 35.178 346.652 34.59V29.34H346.022C344.006 29.34 342.55 29.704 341.654 30.432C340.786 31.16 340.352 32.266 340.352 33.75C340.352 34.926 340.59 35.822 341.066 36.438C341.57 37.026 342.242 37.32 343.082 37.32ZM357.618 39V24.72C357.618 23.46 357.436 22.452 357.072 21.696C356.736 20.912 355.938 20.52 354.678 20.52H354.258V19.26H359.298C360.278 19.26 361.034 19.428 361.566 19.764C362.126 20.1 362.518 20.66 362.742 21.444C362.966 22.228 363.078 23.32 363.078 24.72V28.08H369.798V19.26H375.258V33.54C375.258 34.8 375.426 35.822 375.762 36.606C376.126 37.362 376.938 37.74 378.198 37.74H378.618V39H373.578C372.598 39 371.828 38.846 371.268 38.538C370.736 38.202 370.358 37.642 370.134 36.858C369.91 36.046 369.798 34.94 369.798 33.54V29.97H363.078V39H357.618ZM390.173 39.42C387.933 39.42 386.057 38.958 384.545 38.034C383.061 37.082 381.941 35.822 381.185 34.254C380.457 32.686 380.093 30.978 380.093 29.13C380.093 27.254 380.457 25.546 381.185 24.006C381.941 22.438 383.061 21.192 384.545 20.268C386.057 19.316 387.933 18.84 390.173 18.84C391.769 18.84 393.113 18.952 394.205 19.176C395.325 19.4 396.151 19.778 396.683 20.31C397.215 20.842 397.523 21.556 397.607 22.452C397.691 23.348 397.733 24.594 397.733 26.19H396.473C396.361 24.398 395.801 23.04 394.793 22.116C393.813 21.192 392.483 20.73 390.803 20.73C389.795 20.73 388.913 21.038 388.157 21.654C387.401 22.242 386.813 23.166 386.393 24.426C385.973 25.658 385.763 27.226 385.763 29.13C385.763 30.978 385.959 32.532 386.351 33.792C386.743 35.024 387.317 35.962 388.073 36.606C388.857 37.222 389.837 37.53 391.013 37.53C392.469 37.53 393.645 37.194 394.541 36.522C395.465 35.85 396.291 35.024 397.019 34.044L398.321 35.01C397.929 35.626 397.397 36.284 396.725 36.984C396.081 37.656 395.227 38.23 394.163 38.706C393.127 39.182 391.797 39.42 390.173 39.42ZM411.009 39.42C408.937 39.42 407.145 38.972 405.633 38.076C404.121 37.152 402.959 35.906 402.147 34.338C401.335 32.77 400.929 31.034 400.929 29.13C400.929 27.198 401.335 25.462 402.147 23.922C402.959 22.354 404.121 21.122 405.633 20.226C407.145 19.302 408.937 18.84 411.009 18.84C413.109 18.84 414.901 19.302 416.385 20.226C417.897 21.122 419.059 22.354 419.871 23.922C420.683 25.462 421.089 27.198 421.089 29.13C421.089 31.034 420.683 32.77 419.871 34.338C419.059 35.906 417.897 37.152 416.385 38.076C414.901 38.972 413.109 39.42 411.009 39.42ZM411.009 37.53C411.989 37.53 412.801 37.166 413.445 36.438C414.117 35.71 414.607 34.716 414.915 33.456C415.251 32.168 415.419 30.726 415.419 29.13C415.419 27.506 415.251 26.064 414.915 24.804C414.607 23.544 414.117 22.55 413.445 21.822C412.801 21.094 411.989 20.73 411.009 20.73C410.029 20.73 409.203 21.094 408.531 21.822C407.887 22.55 407.397 23.544 407.061 24.804C406.753 26.064 406.599 27.506 406.599 29.13C406.599 30.726 406.753 32.168 407.061 33.456C407.397 34.716 407.887 35.71 408.531 36.438C409.203 37.166 410.029 37.53 411.009 37.53ZM425.699 39V24.72C425.699 23.46 425.517 22.452 425.153 21.696C424.817 20.912 424.019 20.52 422.759 20.52H422.549V19.26H433.805C435.485 19.26 436.955 19.456 438.215 19.848C439.503 20.212 440.497 20.772 441.197 21.528C441.925 22.256 442.289 23.18 442.289 24.3C442.289 25.56 441.813 26.554 440.861 27.282C439.937 28.01 438.635 28.486 436.955 28.71C438.747 28.934 440.217 29.452 441.365 30.264C442.541 31.076 443.129 32.168 443.129 33.54C443.129 34.8 442.765 35.836 442.037 36.648C441.309 37.46 440.245 38.062 438.845 38.454C437.473 38.818 435.793 39 433.805 39H425.699ZM433.049 37.32C434.309 37.32 435.359 37.012 436.199 36.396C437.039 35.752 437.459 34.8 437.459 33.54C437.459 32.196 437.025 31.202 436.157 30.558C435.289 29.886 434.113 29.55 432.629 29.55H431.159V37.026C431.467 37.138 431.803 37.222 432.167 37.278C432.531 37.306 432.825 37.32 433.049 37.32ZM431.159 27.66H432.629C433.693 27.66 434.617 27.366 435.401 26.778C436.213 26.19 436.619 25.364 436.619 24.3C436.619 23.124 436.227 22.27 435.443 21.738C434.687 21.206 433.889 20.94 433.049 20.94C432.825 20.94 432.531 20.968 432.167 21.024C431.803 21.052 431.467 21.122 431.159 21.234V27.66Z" fill="white"/>
<path d="M0 22H14C21.732 22 28 28.268 28 36H14C6.26801 36 0 29.732 0 22Z" fill="#018ABE"/>
<path d="M518 22H504C496.268 22 490 28.268 490 36H504C511.732 36 518 29.732 518 22Z" fill="#018ABE"/>
</svg>
